<?plantuml 1.2026.1?><svg xmlns="http://www.w3.org/2000/svg" xmlns:xlink="http://www.w3.org/1999/xlink" contentStyleType="text/css" data-diagram-type="DESCRIPTION" height="867px" preserveAspectRatio="none" style="width:1015px;height:867px;background:#FFFFFF;" version="1.1" viewBox="0 0 1015 867" width="1015px" zoomAndPan="magnify"><title>omnirun &#8212; subsystem spine (the Slot seam sits in the middle)</title><defs/><g><g class="title" data-source-line="1"><text fill="#000000" font-family="sans-serif" font-size="14" font-weight="bold" lengthAdjust="spacing" textLength="458.4316" x="271.2842" y="22.9951">omnirun &#8212; subsystem spine (the Slot seam sits in the middle)</text></g><!--cluster Client--><g class="cluster" data-qualified-name="Client" data-source-line="9" id="ent0003"><rect fill="none" height="87.29" rx="2.5" ry="2.5" style="stroke:#181818;stroke-width:1;" width="202" x="356" y="166.0969"/><text fill="#000000" font-family="sans-serif" font-size="14" font-weight="bold" lengthAdjust="spacing" textLength="43.1553" x="435.4224" y="181.092">Client</text></g><!--cluster cp--><g class="cluster" data-qualified-name="cp" data-source-line="16" id="ent0007"><rect fill="none" height="303.39" rx="2.5" ry="2.5" style="stroke:#181818;stroke-width:1;" width="444" x="7" y="413.3869"/><text fill="#000000" font-family="sans-serif" font-size="14" font-weight="bold" lengthAdjust="spacing" textLength="99.4561" x="179.272" y="428.382">Control plane</text><text fill="#000000" font-family="sans-serif" font-size="14" font-weight="bold" lengthAdjust="spacing" textLength="428.5586" x="14.7207" y="444.6789">(driver: daemonless tick | local daemon | central daemon)</text></g><!--cluster Providers\n(all backend detail lives here, and only here)--><g class="cluster" data-qualified-name="Providers.n.all backend detail lives here. and only here." data-source-line="24" id="ent0012"><rect fill="none" height="103.3" rx="2.5" ry="2.5" style="stroke:#181818;stroke-width:1;" width="628" x="381" y="757.7769"/><text fill="#000000" font-family="sans-serif" font-size="14" font-weight="bold" lengthAdjust="spacing" textLength="69.4258" x="660.2871" y="772.772">Providers</text><text fill="#000000" font-family="sans-serif" font-size="14" font-weight="bold" lengthAdjust="spacing" textLength="330.5723" x="529.7139" y="789.0689">(all backend detail lives here, and only here)</text></g><!--entity cli--><g class="entity" data-qualified-name="Client.cli" data-source-line="10" id="ent0004"><rect fill="#F1F1F1" height="36.2969" rx="2.5" ry="2.5" style="stroke:#181818;stroke-width:0.5;" width="41.7041" x="372.15" y="201.0969"/><text fill="#000000" font-family="sans-serif" font-size="14" lengthAdjust="spacing" textLength="21.7041" x="382.15" y="224.092">CLI</text></g><!--entity thin--><g class="entity" data-qualified-name="Client.thin" data-source-line="11" id="ent0005"><rect fill="#F1F1F1" height="36.2969" rx="2.5" ry="2.5" style="stroke:#181818;stroke-width:0.5;" width="93.0898" x="448.46" y="201.0969"/><text fill="#000000" font-family="sans-serif" font-size="14" lengthAdjust="spacing" textLength="73.0898" x="458.46" y="224.092">Thin client</text></g><!--entity sched--><g class="entity" data-qualified-name="cp.sched" data-source-line="17" id="ent0008"><rect fill="#F1F1F1" height="52.5938" rx="2.5" ry="2.5" style="stroke:#181818;stroke-width:0.5;" width="162.5908" x="98.7" y="472.3869"/><text fill="#000000" font-family="sans-serif" font-size="14" lengthAdjust="spacing" textLength="70.0889" x="144.951" y="495.382">Scheduler</text><text fill="#000000" font-family="sans-serif" font-size="14" lengthAdjust="spacing" textLength="142.5908" x="108.7" y="511.6789">(pure decision logic)</text></g><!--entity disc--><g class="entity" data-qualified-name="cp.disc" data-source-line="18" id="ent0009"><rect fill="#F1F1F1" height="52.5938" rx="2.5" ry="2.5" style="stroke:#181818;stroke-width:0.5;" width="111.9092" x="296.05" y="472.3869"/><text fill="#000000" font-family="sans-serif" font-size="14" lengthAdjust="spacing" textLength="69.166" x="317.4216" y="495.382">Discovery</text><text fill="#000000" font-family="sans-serif" font-size="14" lengthAdjust="spacing" textLength="91.9092" x="306.05" y="511.6789">+ Fact cache</text></g><!--entity store--><g class="entity" data-qualified-name="cp.store" data-source-line="19" id="ent0010"><path d="M167.71,641.1869 C167.71,631.1869 243,631.1869 243,631.1869 C243,631.1869 318.2901,631.1869 318.2901,641.1869 L318.2901,682.7806 C318.2901,692.7806 243,692.7806 243,692.7806 C243,692.7806 167.71,692.7806 167.71,682.7806 L167.71,641.1869" fill="#F1F1F1" style="stroke:#181818;stroke-width:0.5;"/><path d="M167.71,641.1869 C167.71,651.1869 243,651.1869 243,651.1869 C243,651.1869 318.2901,651.1869 318.2901,641.1869" fill="none" style="stroke:#181818;stroke-width:0.5;"/><text fill="#000000" font-family="sans-serif" font-size="14" lengthAdjust="spacing" textLength="37.3105" x="224.3448" y="668.182">Store</text><text fill="#000000" font-family="sans-serif" font-size="14" lengthAdjust="spacing" textLength="130.5801" x="177.71" y="684.4789">(SQLite | Postgres)</text></g><!--entity slurm--><g class="entity" data-qualified-name="Providers.n.all backend detail lives here. and only here..slurm" data-source-line="25" id="ent0013"><rect fill="#F1F1F1" height="36.2969" rx="2.5" ry="2.5" style="stroke:#181818;stroke-width:0.5;" width="59.4502" x="397.27" y="808.7769"/><text fill="#000000" font-family="sans-serif" font-size="14" lengthAdjust="spacing" textLength="39.4502" x="407.27" y="831.772">slurm</text></g><!--entity ssh--><g class="entity" data-qualified-name="Providers.n.all backend detail lives here. and only here..ssh" data-source-line="26" id="ent0014"><rect fill="#F1F1F1" height="36.2969" rx="2.5" ry="2.5" style="stroke:#181818;stroke-width:0.5;" width="89.6992" x="492.15" y="808.7769"/><text fill="#000000" font-family="sans-serif" font-size="14" lengthAdjust="spacing" textLength="69.6992" x="502.15" y="831.772">ssh / local</text></g><!--entity kaggle--><g class="entity" data-qualified-name="Providers.n.all backend detail lives here. and only here..kaggle" data-source-line="27" id="ent0015"><rect fill="#F1F1F1" height="36.2969" rx="2.5" ry="2.5" style="stroke:#181818;stroke-width:0.5;" width="66.9629" x="616.52" y="808.7769"/><text fill="#000000" font-family="sans-serif" font-size="14" lengthAdjust="spacing" textLength="46.9629" x="626.52" y="831.772">kaggle</text></g><!--entity colab--><g class="entity" data-qualified-name="Providers.n.all backend detail lives here. and only here..colab" data-source-line="28" id="ent0016"><rect fill="#F1F1F1" height="36.2969" rx="2.5" ry="2.5" style="stroke:#181818;stroke-width:0.5;" width="57.6182" x="718.19" y="808.7769"/><text fill="#000000" font-family="sans-serif" font-size="14" lengthAdjust="spacing" textLength="37.6182" x="728.19" y="831.772">colab</text></g><!--entity mkt--><g class="entity" data-qualified-name="Providers.n.all backend detail lives here. and only here..mkt" data-source-line="29" id="ent0017"><rect fill="#F1F1F1" height="36.2969" rx="2.5" ry="2.5" style="stroke:#181818;stroke-width:0.5;" width="182.0869" x="810.96" y="808.7769"/><text fill="#000000" font-family="sans-serif" font-size="14" lengthAdjust="spacing" textLength="162.0869" x="820.96" y="831.772">vast / runpod / thunder</text></g><!--entity User--><g class="entity" data-qualified-name="User" data-source-line="7" id="ent0002"><ellipse cx="392.9951" cy="51.2969" fill="#F1F1F1" rx="8" ry="8" style="stroke:#181818;stroke-width:0.5;"/><path d="M392.9951,59.2969 L392.9951,86.2969 M379.9951,67.2969 L405.9951,67.2969 M392.9951,86.2969 L379.9951,101.2969 M392.9951,86.2969 L405.9951,101.2969" fill="none" style="stroke:#181818;stroke-width:0.5;"/><text fill="#000000" font-family="sans-serif" font-size="14" lengthAdjust="spacing" textLength="31.9102" x="377.04" y="115.792">User</text></g><!--entity ctrl--><g class="entity" data-qualified-name="ctrl" data-source-line="14" id="ent0006"><ellipse cx="443" cy="329.3869" fill="#F1F1F1" rx="8" ry="8" style="stroke:#181818;stroke-width:0.5;"/><text fill="#000000" font-family="sans-serif" font-size="14" lengthAdjust="spacing" textLength="77.5127" x="404.2437" y="359.382">Control API</text></g><!--entity pseam--><g class="entity" data-qualified-name="pseam" data-source-line="22" id="ent0011"><ellipse cx="650" cy="661.9869" fill="#F1F1F1" rx="8" ry="8" style="stroke:#181818;stroke-width:0.5;"/><text fill="#000000" font-family="sans-serif" font-size="14" lengthAdjust="spacing" textLength="100.7686" x="599.6157" y="691.982">Provider seam</text><text fill="#000000" font-family="sans-serif" font-size="14" lengthAdjust="spacing" textLength="334.5371" x="482.7314" y="708.2789">offer / place / poll / cancel / stream / collect / gc</text></g><!--link User to cli--><g class="link" data-entity-1="ent0002" data-entity-2="ent0004" data-link-type="dependency" data-source-line="32" id="lnk18"><path d="M393,119.5469 C393,146.0269 393,174.2569 393,194.6569" fill="none" id="User-to-cli" style="stroke:#181818;stroke-width:1;"/><polygon fill="#181818" points="393,200.6569,397,191.6569,393,195.6569,389,191.6569,393,200.6569" style="stroke:#181818;stroke-width:1;"/></g><!--link cli to ctrl--><g class="link" data-entity-1="ent0004" data-entity-2="ent0006" data-link-type="dependency" data-source-line="33" id="lnk19"><path d="M401.03,237.6169 C412.02,261.3769 428.7609,297.6013 436.8009,314.9813" fill="none" id="cli-to-ctrl" style="stroke:#181818;stroke-width:1;"/><polygon fill="#181818" points="439.32,320.4269,439.1717,310.5791,437.2207,315.8889,431.911,313.938,439.32,320.4269" style="stroke:#181818;stroke-width:1;"/></g><!--link thin to ctrl--><g class="link" data-entity-1="ent0005" data-entity-2="ent0006" data-link-type="dependency" data-source-line="34" id="lnk20"><path d="M486.65,237.6169 C475.22,261.3769 457.7783,297.6387 449.4283,315.0187" fill="none" id="thin-to-ctrl" style="stroke:#181818;stroke-width:1;"/><polygon fill="#181818" points="446.83,320.4269,454.3329,314.0468,448.9953,315.92,447.122,310.5823,446.83,320.4269" style="stroke:#181818;stroke-width:1;"/></g><!--link ctrl to cp--><g class="link" data-entity-1="ent0006" data-entity-2="ent0007" data-link-type="dependency" data-source-line="35" id="lnk21"><path d="M443,338.0169 C443,346.0694 443,359.8288 443,375.9984 C443,384.0833 443,392.7707 443,401.6486 C443,403.8681 443,406.0995 443,408.3364 C443,409.4548 443,410.5746 443,411.6949 C443,412.2551 443,406.8154 443,407.3758" fill="none" id="ctrl-to-cp" style="stroke:#181818;stroke-width:1;"/><polygon fill="#181818" points="443,413.3758,447,404.3758,443,408.3758,439,404.3758,443,413.3758" style="stroke:#181818;stroke-width:1;"/></g><!--link sched to store--><g class="link" data-entity-1="ent0008" data-entity-2="ent0010" data-link-type="dependency" data-source-line="36" id="lnk22"><path d="M189.98,525.2469 C201.19,553.9369 217.178,594.8577 229.058,625.2877" fill="none" id="sched-to-store" style="stroke:#181818;stroke-width:1;stroke-dasharray:7,7;"/><polygon fill="#181818" points="231.24,630.8769,231.6931,621.0384,229.4216,626.2192,224.2408,623.9478,231.24,630.8769" style="stroke:#181818;stroke-width:1;"/></g><!--link disc to store--><g class="link" data-entity-1="ent0009" data-entity-2="ent0010" data-link-type="dependency" data-source-line="37" id="lnk23"><path d="M334.73,525.2469 C315.34,553.9369 287.2702,595.476 266.7002,625.906" fill="none" id="disc-to-store" style="stroke:#181818;stroke-width:1;stroke-dasharray:7,7;"/><polygon fill="#181818" points="263.34,630.8769,271.6942,625.6607,266.1401,626.7345,265.0664,621.1805,263.34,630.8769" style="stroke:#181818;stroke-width:1;"/></g><!--link sched to pseam--><g class="link" data-entity-1="ent0008" data-entity-2="ent0011" data-link-type="dependency" data-source-line="38" id="lnk24"><path d="M246.23,525.4669 C292.9,543.3669 356.99,567.4269 414,586.9869 C502.14,617.2169 604.6733,647.6756 635.6133,656.7656" fill="none" id="sched-to-pseam" style="stroke:#181818;stroke-width:1;"/><polygon fill="#181818" points="641.37,658.4569,633.8625,652.0821,636.5728,657.0475,631.6074,659.7577,641.37,658.4569" style="stroke:#181818;stroke-width:1;"/><text fill="#000000" font-family="sans-serif" font-size="13" lengthAdjust="spacing" textLength="118.5996" x="418.9609" y="568.0538">slots / placements</text><text fill="#000000" font-family="sans-serif" font-size="13" lengthAdjust="spacing" textLength="126.5215" x="415" y="583.1866">(no backend detail)</text></g><!--link disc to pseam--><g class="link" data-entity-1="ent0009" data-entity-2="ent0011" data-link-type="dependency" data-source-line="39" id="lnk25"><path d="M408.42,523.8169 C409.62,524.2169 410.81,524.6069 412,524.9869 C471.84,543.9269 495.35,524.1069 550,554.9869 C595.16,580.4969 628.8579,628.0811 641.7879,648.0411" fill="none" id="disc-to-pseam" style="stroke:#181818;stroke-width:1;"/><polygon fill="#181818" points="645.05,653.0769,643.514,643.3485,642.3316,648.8804,636.7997,647.698,645.05,653.0769" style="stroke:#181818;stroke-width:1;"/><text fill="#000000" font-family="sans-serif" font-size="13" lengthAdjust="spacing" textLength="64.9175" x="591.85" y="575.5538">discover()</text></g><!--link pseam to slurm--><g class="link" data-entity-1="ent0011" data-entity-2="ent0013" data-link-type="dependency" data-source-line="40" id="lnk26"><path d="M641.38,665.4069 C614.16,673.4269 528.62,701.3769 475,749.7769 C456.56,766.4269 445.0884,786.3591 437.0884,803.1691" fill="none" id="pseam-to-slurm" style="stroke:#181818;stroke-width:1;"/><polygon fill="#181818" points="434.51,808.5869,441.9894,802.1791,436.6586,804.0721,434.7657,798.7413,434.51,808.5869" style="stroke:#181818;stroke-width:1;"/></g><!--link pseam to ssh--><g class="link" data-entity-1="ent0011" data-entity-2="ent0014" data-link-type="dependency" data-source-line="41" id="lnk27"><path d="M644.55,670.8469 C627.27,695.7669 576.8299,768.5069 552.5299,803.5369" fill="none" id="pseam-to-ssh" style="stroke:#181818;stroke-width:1;"/><polygon fill="#181818" points="549.11,808.4669,557.5264,803.3518,551.9599,804.3586,550.9532,798.792,549.11,808.4669" style="stroke:#181818;stroke-width:1;"/></g><!--link pseam to kaggle--><g class="link" data-entity-1="ent0011" data-entity-2="ent0015" data-link-type="dependency" data-source-line="42" id="lnk28"><path d="M650,670.8469 C650,695.7669 650,767.4369 650,802.4669" fill="none" id="pseam-to-kaggle" style="stroke:#181818;stroke-width:1;"/><polygon fill="#181818" points="650,808.4669,654,799.4669,650,803.4669,646,799.4669,650,808.4669" style="stroke:#181818;stroke-width:1;"/></g><!--link pseam to colab--><g class="link" data-entity-1="ent0011" data-entity-2="ent0016" data-link-type="dependency" data-source-line="43" id="lnk29"><path d="M654.68,670.8469 C669.51,695.7669 712.6801,768.2817 733.5401,803.3117" fill="none" id="pseam-to-colab" style="stroke:#181818;stroke-width:1;"/><polygon fill="#181818" points="736.61,808.4669,735.442,798.6875,734.0518,804.1709,728.5684,802.7807,736.61,808.4669" style="stroke:#181818;stroke-width:1;"/></g><!--link pseam to mkt--><g class="link" data-entity-1="ent0011" data-entity-2="ent0017" data-link-type="dependency" data-source-line="44" id="lnk30"><path d="M658.83,668.0769 C681.43,681.1669 743.12,717.2669 793,749.7769 C822.78,769.1969 851.3083,789.3045 873.1883,805.0345" fill="none" id="pseam-to-mkt" style="stroke:#181818;stroke-width:1;"/><polygon fill="#181818" points="878.06,808.5369,873.0874,800.0355,874.0003,805.6182,868.4175,806.5311,878.06,808.5369" style="stroke:#181818;stroke-width:1;"/></g><?plantuml-src PLF1Rjim3BtxAuYS4cpjxZqKA3OC6D13XtItN1Y9iON8aY7AtO9jm3vYNxWlsPFbBKvwi4toKS_a8vLTzaAn3owDWVxy-aqwxlMaMNhImGMXTUw4jZvcKc44NLPoWKgqTzPwsJHwT67W1DJ4VeX1Gjxc4tYJcCoXzR98qOvj_Ef2ImVskaIi77Zq-Lc-vGVlsj23XmnUaXPP0viZjtBzWuPDZec-A9AREOTMxxt3-HLzR-XS6yAFdrR4IiQxI-2vGsjcFeI43B_vsJIk575WKoXZo2bwUdYQENBoop_EyE0vo2wiRN8lakx8ilGnU56GEdEa7-IZOJ_7uPP6q__0fd8FrvLlJITsz990FOn989fnwi3WO-jCFQObwVBS1wScef3JBhoXZz2A32DhIhV0a6qvyvuLFMoXPAbz-_dHPK5jJr5pcqHd-W9VgVAKuekpagObsOLuEC1-LrG0Yc_q7X_3mKWnDAUoJ8W0m0nXjMOY7mh1Giz_n8fw62Hx018i-ixiF7cegzH9ahV424FYq-HkNWrT_PZwsa2nha3jKCCqafgYtMK2gi6QJLWrBs7qmViwis9TWY-ifKFSi25Q6BaR0rgQqljZBbAMlQMRc_jf9V5KkwnMMS6pLrxL6vffp7HxUpzFfCnnuLQuv4wQqXtwZhYyyrJAxIgYXdYbwQOIBG_QUNlMcwQ62bXLNFYGxEpD8fq3LPUpZyR_0W00?></g></svg>