<?plantuml 1.2026.1?><svg xmlns="http://www.w3.org/2000/svg" xmlns:xlink="http://www.w3.org/1999/xlink" contentStyleType="text/css" data-diagram-type="DESCRIPTION" height="453px" preserveAspectRatio="none" style="width:1494px;height:453px;background:#FFFFFF;" version="1.1" viewBox="0 0 1494 453" width="1494px" zoomAndPan="magnify"><title>Three deployment tiers &#8212; same logic, different driver + store</title><defs/><g><g class="title" data-source-line="1"><text fill="#000000" font-family="sans-serif" font-size="14" font-weight="bold" lengthAdjust="spacing" textLength="456.1074" x="512.1638" y="22.9951">Three deployment tiers &#8212; same logic, different driver + store</text></g><!--cluster t0node--><g class="cluster" data-qualified-name="t0node" data-source-line="5" id="ent0002"><polygon fill="none" points="16,53.2969,26,43.2969,297,43.2969,297,413.9869,287,423.9869,16,423.9869,16,53.2969" style="stroke:#181818;stroke-width:1;"/><line style="stroke:#181818;stroke-width:1;" x1="287" x2="297" y1="53.2969" y2="43.2969"/><line style="stroke:#181818;stroke-width:1;" x1="16" x2="287" y1="53.2969" y2="53.2969"/><line style="stroke:#181818;stroke-width:1;" x1="287" x2="287" y1="53.2969" y2="423.9869"/><text fill="#000000" font-family="sans-serif" font-size="14" font-weight="bold" lengthAdjust="spacing" textLength="205.6865" x="49.6567" y="69.292">Tier 0 &#8212; daemonless laptop</text></g><!--cluster t1node--><g class="cluster" data-qualified-name="t1node" data-source-line="13" id="ent0008"><polygon fill="none" points="649,53.2969,659,43.2969,971,43.2969,971,413.9869,961,423.9869,649,423.9869,649,53.2969" style="stroke:#181818;stroke-width:1;"/><line style="stroke:#181818;stroke-width:1;" x1="961" x2="971" y1="53.2969" y2="43.2969"/><line style="stroke:#181818;stroke-width:1;" x1="649" x2="961" y1="53.2969" y2="53.2969"/><line style="stroke:#181818;stroke-width:1;" x1="961" x2="961" y1="53.2969" y2="423.9869"/><text fill="#000000" font-family="sans-serif" font-size="14" font-weight="bold" lengthAdjust="spacing" textLength="224.3623" x="693.8188" y="69.292">Tier 1 &#8212; local daemon (opt-in)</text></g><!--cluster t2node--><g class="cluster" data-qualified-name="t2node" data-source-line="21" id="ent0014"><polygon fill="none" points="995,204.5969,1005,194.5969,1437,194.5969,1437,426.6369,1427,436.6369,995,436.6369,995,204.5969" style="stroke:#181818;stroke-width:1;"/><line style="stroke:#181818;stroke-width:1;" x1="1427" x2="1437" y1="204.5969" y2="194.5969"/><line style="stroke:#181818;stroke-width:1;" x1="995" x2="1427" y1="204.5969" y2="204.5969"/><line style="stroke:#181818;stroke-width:1;" x1="1427" x2="1427" y1="204.5969" y2="436.6369"/><text fill="#000000" font-family="sans-serif" font-size="14" font-weight="bold" lengthAdjust="spacing" textLength="264.0313" x="1079.9844" y="220.592">Tier 2 &#8212; central daemon (your VPS)</text></g><!--cluster Laptop A--><g class="cluster" data-qualified-name="Laptop A" data-source-line="29" id="ent0020"><polygon fill="none" points="1228,53.2969,1238,43.2969,1370,43.2969,1370,135.5969,1360,145.5969,1228,145.5969,1228,53.2969" style="stroke:#181818;stroke-width:1;"/><line style="stroke:#181818;stroke-width:1;" x1="1360" x2="1370" y1="53.2969" y2="43.2969"/><line style="stroke:#181818;stroke-width:1;" x1="1228" x2="1360" y1="53.2969" y2="53.2969"/><line style="stroke:#181818;stroke-width:1;" x1="1360" x2="1360" y1="53.2969" y2="145.5969"/><text fill="#000000" font-family="sans-serif" font-size="14" font-weight="bold" lengthAdjust="spacing" textLength="65.2969" x="1262.3516" y="69.292">Laptop A</text></g><!--cluster Laptop B--><g class="cluster" data-qualified-name="Laptop B" data-source-line="32" id="ent0022"><polygon fill="none" points="1035,53.2969,1045,43.2969,1177,43.2969,1177,135.5969,1167,145.5969,1035,145.5969,1035,53.2969" style="stroke:#181818;stroke-width:1;"/><line style="stroke:#181818;stroke-width:1;" x1="1167" x2="1177" y1="53.2969" y2="43.2969"/><line style="stroke:#181818;stroke-width:1;" x1="1035" x2="1167" y1="53.2969" y2="53.2969"/><line style="stroke:#181818;stroke-width:1;" x1="1167" x2="1167" y1="53.2969" y2="145.5969"/><text fill="#000000" font-family="sans-serif" font-size="14" font-weight="bold" lengthAdjust="spacing" textLength="65.3242" x="1069.3379" y="69.292">Laptop B</text></g><!--entity cli0--><g class="entity" data-qualified-name="t0node.cli0" data-source-line="6" id="ent0003"><rect fill="#F1F1F1" height="46.2969" rx="2.5" ry="2.5" style="stroke:#181818;stroke-width:0.5;" width="61.7041" x="156.15" y="83.2969"/><rect fill="#F1F1F1" height="10" style="stroke:#181818;stroke-width:0.5;" width="15" x="197.8541" y="88.2969"/><rect fill="#F1F1F1" height="2" style="stroke:#181818;stroke-width:0.5;" width="4" x="195.8541" y="90.2969"/><rect fill="#F1F1F1" height="2" style="stroke:#181818;stroke-width:0.5;" width="4" x="195.8541" y="94.2969"/><text fill="#000000" font-family="sans-serif" font-size="14" lengthAdjust="spacing" textLength="21.7041" x="171.15" y="116.292">CLI</text></g><!--entity t0--><g class="entity" data-qualified-name="t0node.t0" data-source-line="7" id="ent0004"><rect fill="#F1F1F1" height="62.5938" rx="2.5" ry="2.5" style="stroke:#181818;stroke-width:0.5;" width="188.4424" x="92.78" y="226.4469"/><rect fill="#F1F1F1" height="10" style="stroke:#181818;stroke-width:0.5;" width="15" x="261.2224" y="231.4469"/><rect fill="#F1F1F1" height="2" style="stroke:#181818;stroke-width:0.5;" width="4" x="259.2224" y="233.4469"/><rect fill="#F1F1F1" height="2" style="stroke:#181818;stroke-width:0.5;" width="4" x="259.2224" y="237.4469"/><text fill="#000000" font-family="sans-serif" font-size="14" lengthAdjust="spacing" textLength="101.5547" x="131.2238" y="259.442">in-process tick</text><text fill="#000000" font-family="sans-serif" font-size="14" lengthAdjust="spacing" textLength="148.4424" x="107.78" y="275.7389">(runs inside CLI cmd)</text></g><!--entity db0--><g class="entity" data-qualified-name="t0node.db0" data-source-line="8" id="ent0005"><path d="M154.15,372.6869 C154.15,362.6869 186.9991,362.6869 186.9991,362.6869 C186.9991,362.6869 219.8482,362.6869 219.8482,372.6869 L219.8482,397.9838 C219.8482,407.9838 186.9991,407.9838 186.9991,407.9838 C186.9991,407.9838 154.15,407.9838 154.15,397.9838 L154.15,372.6869" fill="#F1F1F1" style="stroke:#181818;stroke-width:0.5;"/><path d="M154.15,372.6869 C154.15,382.6869 186.9991,382.6869 186.9991,382.6869 C186.9991,382.6869 219.8482,382.6869 219.8482,372.6869" fill="none" style="stroke:#181818;stroke-width:0.5;"/><text fill="#000000" font-family="sans-serif" font-size="14" lengthAdjust="spacing" textLength="45.6982" x="164.15" y="399.682">SQLite</text></g><!--entity cli1--><g class="entity" data-qualified-name="t1node.cli1" data-source-line="14" id="ent0009"><rect fill="#F1F1F1" height="46.2969" rx="2.5" ry="2.5" style="stroke:#181818;stroke-width:0.5;" width="61.7041" x="779.15" y="83.2969"/><rect fill="#F1F1F1" height="10" style="stroke:#181818;stroke-width:0.5;" width="15" x="820.8541" y="88.2969"/><rect fill="#F1F1F1" height="2" style="stroke:#181818;stroke-width:0.5;" width="4" x="818.8541" y="90.2969"/><rect fill="#F1F1F1" height="2" style="stroke:#181818;stroke-width:0.5;" width="4" x="818.8541" y="94.2969"/><text fill="#000000" font-family="sans-serif" font-size="14" lengthAdjust="spacing" textLength="21.7041" x="794.15" y="116.292">CLI</text></g><!--entity d1--><g class="entity" data-qualified-name="t1node.d1" data-source-line="15" id="ent0010"><rect fill="#F1F1F1" height="62.5938" rx="2.5" ry="2.5" style="stroke:#181818;stroke-width:0.5;" width="289.5938" x="665.2" y="226.4469"/><rect fill="#F1F1F1" height="10" style="stroke:#181818;stroke-width:0.5;" width="15" x="934.7938" y="231.4469"/><rect fill="#F1F1F1" height="2" style="stroke:#181818;stroke-width:0.5;" width="4" x="932.7938" y="233.4469"/><rect fill="#F1F1F1" height="2" style="stroke:#181818;stroke-width:0.5;" width="4" x="932.7938" y="237.4469"/><text fill="#000000" font-family="sans-serif" font-size="14" lengthAdjust="spacing" textLength="101.4795" x="754.2571" y="259.442">omnirun serve</text><text fill="#000000" font-family="sans-serif" font-size="14" lengthAdjust="spacing" textLength="249.5938" x="680.2" y="275.7389">(background loop -&gt; auto wake-up)</text></g><!--entity db1--><g class="entity" data-qualified-name="t1node.db1" data-source-line="16" id="ent0011"><path d="M777.15,372.6869 C777.15,362.6869 809.9991,362.6869 809.9991,362.6869 C809.9991,362.6869 842.8482,362.6869 842.8482,372.6869 L842.8482,397.9838 C842.8482,407.9838 809.9991,407.9838 809.9991,407.9838 C809.9991,407.9838 777.15,407.9838 777.15,397.9838 L777.15,372.6869" fill="#F1F1F1" style="stroke:#181818;stroke-width:0.5;"/><path d="M777.15,372.6869 C777.15,382.6869 809.9991,382.6869 809.9991,382.6869 C809.9991,382.6869 842.8482,382.6869 842.8482,372.6869" fill="none" style="stroke:#181818;stroke-width:0.5;"/><text fill="#000000" font-family="sans-serif" font-size="14" lengthAdjust="spacing" textLength="45.6982" x="787.15" y="399.682">SQLite</text></g><!--entity d2--><g class="entity" data-qualified-name="t2node.d2" data-source-line="22" id="ent0015"><rect fill="#F1F1F1" height="46.2969" rx="2.5" ry="2.5" style="stroke:#181818;stroke-width:0.5;" width="160.0732" x="1025.96" y="234.5969"/><rect fill="#F1F1F1" height="10" style="stroke:#181818;stroke-width:0.5;" width="15" x="1166.0332" y="239.5969"/><rect fill="#F1F1F1" height="2" style="stroke:#181818;stroke-width:0.5;" width="4" x="1164.0332" y="241.5969"/><rect fill="#F1F1F1" height="2" style="stroke:#181818;stroke-width:0.5;" width="4" x="1164.0332" y="245.5969"/><text fill="#000000" font-family="sans-serif" font-size="14" lengthAdjust="spacing" textLength="120.0732" x="1040.96" y="267.592">omnirun daemon</text></g><!--entity pg--><g class="entity" data-qualified-name="t2node.pg" data-source-line="23" id="ent0016"><path d="M1010.58,364.5469 C1010.58,354.5469 1102.9975,354.5469 1102.9975,354.5469 C1102.9975,354.5469 1195.415,354.5469 1195.415,364.5469 L1195.415,406.1406 C1195.415,416.1406 1102.9975,416.1406 1102.9975,416.1406 C1102.9975,416.1406 1010.58,416.1406 1010.58,406.1406 L1010.58,364.5469" fill="#F1F1F1" style="stroke:#181818;stroke-width:0.5;"/><path d="M1010.58,364.5469 C1010.58,374.5469 1102.9975,374.5469 1102.9975,374.5469 C1102.9975,374.5469 1195.415,374.5469 1195.415,364.5469" fill="none" style="stroke:#181818;stroke-width:0.5;"/><text fill="#000000" font-family="sans-serif" font-size="14" lengthAdjust="spacing" textLength="60.3408" x="1072.8271" y="391.542">Postgres</text><text fill="#000000" font-family="sans-serif" font-size="14" lengthAdjust="spacing" textLength="164.835" x="1020.58" y="407.8389">(backups, concurrency)</text></g><!--entity stage--><g class="entity" data-qualified-name="t2node.stage" data-source-line="24" id="ent0017"><path d="M1233.03,350.0469 L1274.03,350.0469 A3.75,3.75 0 0 1 1276.53,352.5469 L1283.53,371.0469 L1418.9616,371.0469 A2.5,2.5 0 0 1 1421.4616,373.5469 L1421.4616,418.1406 A2.5,2.5 0 0 1 1418.9616,420.6406 L1233.03,420.6406 A2.5,2.5 0 0 1 1230.53,418.1406 L1230.53,352.5469 A2.5,2.5 0 0 1 1233.03,350.0469" fill="#F1F1F1" style="stroke:#181818;stroke-width:0.5;"/><line style="stroke:#181818;stroke-width:0.5;" x1="1230.53" x2="1283.53" y1="371.0469" y2="371.0469"/><text fill="#000000" font-family="sans-serif" font-size="14" lengthAdjust="spacing" textLength="92.0664" x="1274.9626" y="391.042">staging store</text><text fill="#000000" font-family="sans-serif" font-size="14" lengthAdjust="spacing" textLength="160.9316" x="1240.53" y="407.3389">bare repo + .env blobs</text></g><!--entity ca--><g class="entity" data-qualified-name="Laptop A.ca" data-source-line="30" id="ent0021"><rect fill="#F1F1F1" height="46.2969" rx="2.5" ry="2.5" style="stroke:#181818;stroke-width:0.5;" width="110.0273" x="1243.99" y="83.2969"/><rect fill="#F1F1F1" height="10" style="stroke:#181818;stroke-width:0.5;" width="15" x="1334.0173" y="88.2969"/><rect fill="#F1F1F1" height="2" style="stroke:#181818;stroke-width:0.5;" width="4" x="1332.0173" y="90.2969"/><rect fill="#F1F1F1" height="2" style="stroke:#181818;stroke-width:0.5;" width="4" x="1332.0173" y="94.2969"/><text fill="#000000" font-family="sans-serif" font-size="14" lengthAdjust="spacing" textLength="70.0273" x="1258.99" y="116.292">thin client</text></g><!--entity cb--><g class="entity" data-qualified-name="Laptop B.cb" data-source-line="33" id="ent0023"><rect fill="#F1F1F1" height="46.2969" rx="2.5" ry="2.5" style="stroke:#181818;stroke-width:0.5;" width="110.0273" x="1050.99" y="83.2969"/><rect fill="#F1F1F1" height="10" style="stroke:#181818;stroke-width:0.5;" width="15" x="1141.0173" y="88.2969"/><rect fill="#F1F1F1" height="2" style="stroke:#181818;stroke-width:0.5;" width="4" x="1139.0173" y="90.2969"/><rect fill="#F1F1F1" height="2" style="stroke:#181818;stroke-width:0.5;" width="4" x="1139.0173" y="94.2969"/><text fill="#000000" font-family="sans-serif" font-size="14" lengthAdjust="spacing" textLength="70.0273" x="1065.99" y="116.292">thin client</text></g><!--entity be--><g class="entity" data-qualified-name="be" data-source-line="39" id="ent0027"><path d="M321.7244,362.7337 C329.0855,352.322 337.1652,354.483 343.4979,363.8649 C351.6052,351.2175 360.3086,353.9119 367.7578,364.5506 C372.8719,355.1831 379.7122,352.9351 387.6984,361.3255 C394.4605,351.0174 404.2599,352.2513 410.1899,362.2472 C415.3313,353.3563 425.2987,351.0534 430.9507,361.7048 C439.9692,350.1443 446.952,350.7116 454.031,363.5402 C459.4337,352.6904 467.9074,350.6105 475.5299,361.3272 C483.0994,352.9686 489.0813,353.8572 494.8995,363.2394 C499.7526,353.6165 510.2002,352.2432 517.1643,360.6295 C524.5682,350.0109 532.8553,351.6585 539.7589,361.1905 C546.7394,351.7005 556.3146,353.5256 560.9352,363.7283 C567.9167,352.1712 574.6958,352.5934 582.5853,362.8261 C589.8387,351.8192 599.6111,352.0445 606.7644,362.9366 C612.5989,353.7611 620.7642,355.4165 625.9892,363.6111 C638.1737,365.7227 642.788,375.3625 635.2945,385.7465 C644.0976,396.8686 639.0621,407.8964 625.1921,409.2892 C621.5124,419.3923 614.5674,420.7385 606.9905,413.3428 C600.7223,423.229 589.0328,424.7093 583.1083,412.9634 C577.4819,421.6937 570.0969,421.7379 563.6062,413.9861 C556.9607,424.0015 547.4046,427.319 539.945,414.8426 C533.5693,426.094 523.8125,426.7348 517.1856,415.0922 C512.8791,425.9397 502.2197,427.5329 495.1772,418.0547 C490.55,426.1915 481.4797,427.7816 476.1948,418.7833 C469.601,429.1638 460.9262,428.7717 454.5249,418.5805 C447.1868,428.7624 437.6087,427.088 431.705,416.9682 C425.0421,427.7963 417.9296,426.8284 411.1232,417.112 C403.0739,427.9552 395.8357,424.3521 389.9903,414.8254 C384.4735,424.5455 373.9322,425.0916 368.4547,414.7831 C360.5191,423.5668 349.5483,422.3852 345.1655,410.734 C340.1038,421.0785 330.6632,420.234 324.5963,411.8372 C310.0092,411.7162 301.4448,400.6369 310.3982,387.0383 C302.6566,373.5348 306.977,365.7571 321.7244,362.7337" fill="#F1F1F1" style="stroke:#181818;stroke-width:0.5;"/><text fill="#000000" font-family="sans-serif" font-size="14" lengthAdjust="spacing" textLength="67.6553" x="439.1771" y="382.042">Backends</text><text fill="#000000" font-family="sans-serif" font-size="14" lengthAdjust="spacing" textLength="289.8096" x="328.1" y="398.3389">slurm / ssh / kaggle / colab / marketplace</text></g><!--link cli0 to t0--><g class="link" data-entity-1="ent0003" data-entity-2="ent0004" data-link-type="dependency" data-source-line="9" id="lnk6"><path d="M187,129.7969 C187,155.4269 187,191.5669 187,220.2069" fill="none" id="cli0-to-t0" style="stroke:#181818;stroke-width:1;"/><polygon fill="#181818" points="187,226.2069,191,217.2069,187,221.2069,183,217.2069,187,226.2069" style="stroke:#181818;stroke-width:1;"/></g><!--link t0 to db0--><g class="link" data-entity-1="ent0004" data-entity-2="ent0005" data-link-type="dependency" data-source-line="10" id="lnk7"><path d="M187,289.4669 C187,311.9869 187,336.0169 187,356.2069" fill="none" id="t0-to-db0" style="stroke:#181818;stroke-width:1;"/><polygon fill="#181818" points="187,362.2069,191,353.2069,187,357.2069,183,353.2069,187,362.2069" style="stroke:#181818;stroke-width:1;"/></g><!--link cli1 to d1--><g class="link" data-entity-1="ent0009" data-entity-2="ent0010" data-link-type="dependency" data-source-line="17" id="lnk12"><path d="M810,129.7969 C810,155.4269 810,191.5669 810,220.2069" fill="none" id="cli1-to-d1" style="stroke:#181818;stroke-width:1;"/><polygon fill="#181818" points="810,226.2069,814,217.2069,810,221.2069,806,217.2069,810,226.2069" style="stroke:#181818;stroke-width:1;"/></g><!--link d1 to db1--><g class="link" data-entity-1="ent0010" data-entity-2="ent0011" data-link-type="dependency" data-source-line="18" id="lnk13"><path d="M810,289.4669 C810,311.9869 810,336.0169 810,356.2069" fill="none" id="d1-to-db1" style="stroke:#181818;stroke-width:1;"/><polygon fill="#181818" points="810,362.2069,814,353.2069,810,357.2069,806,353.2069,810,362.2069" style="stroke:#181818;stroke-width:1;"/></g><!--link d2 to pg--><g class="link" data-entity-1="ent0015" data-entity-2="ent0016" data-link-type="dependency" data-source-line="25" id="lnk18"><path d="M1105.46,281.1969 C1104.98,301.5169 1104.4043,325.6186 1103.8643,348.0586" fill="none" id="d2-to-pg" style="stroke:#181818;stroke-width:1;"/><polygon fill="#181818" points="1103.72,354.0569,1107.9354,345.1557,1103.8403,349.0583,1099.9377,344.9633,1103.72,354.0569" style="stroke:#181818;stroke-width:1;"/></g><!--link d2 to stage--><g class="link" data-entity-1="ent0015" data-entity-2="ent0017" data-link-type="dependency" data-source-line="26" id="lnk19"><path d="M1145.59,281.3469 C1178.86,300.3469 1221.7589,324.8328 1259.9389,346.6228" fill="none" id="d2-to-stage" style="stroke:#181818;stroke-width:1;"/><polygon fill="#181818" points="1265.15,349.5969,1259.3161,341.6618,1260.8075,347.1185,1255.3507,348.6099,1265.15,349.5969" style="stroke:#181818;stroke-width:1;"/></g><!--link ca to d2--><g class="link" data-entity-1="ent0021" data-entity-2="ent0015" data-link-type="dependency" data-source-line="35" id="lnk24"><path d="M1268.29,129.8869 C1255.19,139.5469 1239.77,151.0369 1226,161.5969 C1194.14,186.0269 1162.7969,210.9883 1138.6069,230.4283" fill="none" id="ca-to-d2" style="stroke:#181818;stroke-width:1;"/><polygon fill="#181818" points="1133.93,234.1869,1143.451,231.667,1137.8274,231.0548,1138.4397,225.4311,1133.93,234.1869" style="stroke:#181818;stroke-width:1;"/><text fill="#000000" font-family="sans-serif" font-size="13" lengthAdjust="spacing" textLength="71.9761" x="1227" y="174.6638">Control API</text></g><!--link cb to d2--><g class="link" data-entity-1="ent0023" data-entity-2="ent0015" data-link-type="dependency" data-source-line="36" id="lnk25"><path d="M1106,129.7969 C1106,157.9469 1106,200.0269 1106,228.2469" fill="none" id="cb-to-d2" style="stroke:#181818;stroke-width:1;"/><polygon fill="#181818" points="1106,234.2469,1110,225.2469,1106,229.2469,1102,225.2469,1106,234.2469" style="stroke:#181818;stroke-width:1;"/><text fill="#000000" font-family="sans-serif" font-size="13" lengthAdjust="spacing" textLength="71.9761" x="1107" y="174.6638">Control API</text></g><!--link ca to stage--><g class="link" data-entity-1="ent0021" data-entity-2="ent0017" data-link-type="dependency" data-source-line="37" id="lnk26"><path d="M1301.16,129.6369 C1305.86,177.7669 1316.4184,307.0551 1322.0384,364.7551" fill="none" id="ca-to-stage" style="stroke:#181818;stroke-width:1;stroke-dasharray:7,7;"/><polygon fill="#181818" points="1322.62,370.7269,1325.7287,361.3815,1322.1353,365.7504,1317.7664,362.157,1322.62,370.7269" style="stroke:#181818;stroke-width:1;"/><text fill="#000000" font-family="sans-serif" font-size="13" lengthAdjust="spacing" textLength="168.835" x="1317.6" y="254.8138">push sha + .env (durable,</text><text fill="#000000" font-family="sans-serif" font-size="13" lengthAdjust="spacing" textLength="157.5869" x="1323.224" y="269.9466">so laptop can go offline)</text></g><!--link t0 to be--><g class="link" data-entity-1="ent0004" data-entity-2="ent0027" data-link-type="dependency" data-source-line="40" id="lnk28"><path d="M256.96,289.4669 C301.45,309.0069 353.3266,331.7839 397.7666,351.3039" fill="none" id="t0-to-be" style="stroke:#181818;stroke-width:1;"/><polygon fill="#181818" points="403.26,353.7169,396.6285,346.4352,398.6821,351.7061,393.4112,353.7597,403.26,353.7169" style="stroke:#181818;stroke-width:1;"/></g><!--link d1 to be--><g class="link" data-entity-1="ent0010" data-entity-2="ent0027" data-link-type="dependency" data-source-line="41" id="lnk29"><path d="M727.56,289.4669 C675.24,308.9669 613.4123,332.0118 561.0823,351.5118" fill="none" id="d1-to-be" style="stroke:#181818;stroke-width:1;"/><polygon fill="#181818" points="555.46,353.6069,565.2902,354.2125,560.1453,351.861,562.4968,346.716,555.46,353.6069" style="stroke:#181818;stroke-width:1;"/></g><!--link d2 to be--><g class="link" data-entity-1="ent0015" data-entity-2="ent0027" data-link-type="dependency" data-source-line="42" id="lnk30"><path d="M1025.79,277.2169 C1007.79,281.2269 988.76,285.3669 971,289.0469 C828.36,318.5469 792.04,322.5569 649,350.0469 C642.89,351.2169 642.5402,351.2744 636.2502,352.4944" fill="none" id="d2-to-be" style="stroke:#181818;stroke-width:1;"/><polygon fill="#181818" points="630.36,353.6369,639.957,355.85,635.2685,352.6848,638.4337,347.9964,630.36,353.6369" style="stroke:#181818;stroke-width:1;"/></g><?plantuml-src XLFBRjim4BphAnO-EQZVnnuAE3a5yC55Z9vyMP4hcH359KZAgL4Kw4Vq2_ibNL5A4GKDSf7M7ixip6gPJB84fqiW0atUygqbbo0P2X7-_FeD4Li2oxLH2z2cgYZqk0xcIW4-GKmSg8YDSHu3jX0lgFdPk1egjF4regd2pgOJVKzxQsgN-oXvK2WAnvfWTfAkiCbjDLBBpbACOD4dzZF026cJ3_ue01ItdbslCNiuF6PKMREP8iOjVM3LgoIZchERXyv5C2uQaH4Ug5RVZT92rPYmn2XMdhuUJAACw3AhYZWibr-6WsceU-ZdnFqskxUiq8uPOCu-BOqRssm_IB2T8jmw8vuXKhYI-2zHDNNWpcbfmXx417Q9uHaRMdP-QAAtxsVP3bcsW_zySAm5ccRPvIpz9mglqjou2_3j-3JcsVqlpulhWJDqtaqy7JccEb0S8tK-BaJ0gIx8VgdR8EvhuLHijPYPnOHrlrTvuywkn40GoBCiuOhS5KhBPSoq_YJrtNOvM5OPwm7w5_EGLmlsixS1qiMuVapoO_WmAAG9v_vZJYaSXSDmT_0P7bWcoHRsnyT2bU_yZx1QZJu5ybsyz7Vg9UHSTm5BIukpYppU337de6RWghB6qLrHACkTXjcz39QSbXb7suKMrX15RGqDrhLS-hMOjrZAkyNGKF8MrR0b9HNZWairhaTVxSRgBm00?></g></svg>