<?plantuml 1.2026.1?><svg xmlns="http://www.w3.org/2000/svg" xmlns:xlink="http://www.w3.org/1999/xlink" contentStyleType="text/css" data-diagram-type="CLASS" height="706px" preserveAspectRatio="none" style="width:1092px;height:706px;background:#FFFFFF;" version="1.1" viewBox="0 0 1092 706" width="1092px" zoomAndPan="magnify"><title>omnirun &#8212; domain model</title><defs/><g><g class="title" data-source-line="1"><text fill="#000000" font-family="sans-serif" font-size="14" font-weight="bold" lengthAdjust="spacing" textLength="190.1553" x="444.3692" y="22.9951">omnirun &#8212; domain model</text></g><!--class Job--><g class="entity" data-qualified-name="Job" data-source-line="5" id="ent0002"><rect fill="#F1F1F1" height="210.9688" rx="2.5" ry="2.5" style="stroke:#181818;stroke-width:0.5;" width="334.8887" x="35.42" y="44.2969"/><ellipse cx="187.8238" cy="60.2969" fill="#ADD1B2" rx="11" ry="11" style="stroke:#181818;stroke-width:1;"/><path d="M192.0582,54.7031 L192.0582,57.2188 Q190.8082,56.0625 189.8863,55.6875 Q188.9801,55.3125 187.9488,55.3125 Q185.9488,55.3125 184.8863,56.5313 Q183.8238,57.7344 183.8238,60.0938 Q183.8238,62.4531 184.8863,63.6719 Q185.9488,64.875 187.9488,64.875 Q188.9801,64.875 189.8863,64.5 Q190.8082,64.125 192.0582,62.9688 L192.0582,65.4688 Q191.0113,66.1719 189.9957,66.4844 Q188.9957,66.7813 187.8394,66.7813 Q184.9176,66.7813 183.2144,64.9844 Q181.5269,63.1875 181.5269,60.0938 Q181.5269,57 183.2144,55.2031 Q184.9176,53.3906 187.8394,53.3906 Q189.0113,53.3906 190.0113,53.7031 Q191.0269,54 192.0582,54.7031 Z " fill="#000000"/><text fill="#000000" font-family="sans-serif" font-size="14" lengthAdjust="spacing" textLength="21.5811" x="208.3238" y="65.1436">Job</text><line style="stroke:#181818;stroke-width:0.5;" x1="36.42" x2="369.3087" y1="76.2969" y2="76.2969"/><text fill="#000000" font-family="sans-serif" font-size="14" lengthAdjust="spacing" textLength="44.9326" x="41.42" y="93.292">id : str</text><text fill="#000000" font-family="sans-serif" font-size="14" lengthAdjust="spacing" textLength="71.8594" x="41.42" y="109.5889">name : str</text><text fill="#000000" font-family="sans-serif" font-size="14" lengthAdjust="spacing" textLength="81.0537" x="41.42" y="125.8857">project : str</text><text fill="#000000" font-family="sans-serif" font-size="14" lengthAdjust="spacing" textLength="127.8457" x="41.42" y="142.1826">revision : RepoRef</text><text fill="#000000" font-family="sans-serif" font-size="14" lengthAdjust="spacing" textLength="102.0332" x="41.42" y="158.4795">command : str</text><text fill="#000000" font-family="sans-serif" font-size="14" lengthAdjust="spacing" textLength="143.4043" x="41.42" y="174.7764">deadline : Deadline?</text><text fill="#000000" font-family="sans-serif" font-size="14" lengthAdjust="spacing" textLength="134.0117" x="41.42" y="191.0732">max_cost : Money?</text><text fill="#000000" font-family="sans-serif" font-size="14" lengthAdjust="spacing" textLength="82.3867" x="41.42" y="207.3701">priority : int</text><text fill="#000000" font-family="sans-serif" font-size="14" lengthAdjust="spacing" textLength="107.7207" x="41.42" y="223.667">state : JobState</text><text fill="#000000" font-family="sans-serif" font-size="14" lengthAdjust="spacing" textLength="322.8887" x="41.42" y="239.9639">resume_from : CheckpointRef?  &#171;future hook&#187;</text><line style="stroke:#181818;stroke-width:0.5;" x1="36.42" x2="369.3087" y1="247.2656" y2="247.2656"/></g><!--class Requirements--><g class="entity" data-qualified-name="Requirements" data-source-line="18" id="ent0003"><rect fill="#F1F1F1" height="194.6719" rx="2.5" ry="2.5" style="stroke:#181818;stroke-width:0.5;" width="176.2334" x="219.75" y="332.2569"/><ellipse cx="255.4351" cy="348.2569" fill="#ADD1B2" rx="11" ry="11" style="stroke:#181818;stroke-width:1;"/><path d="M259.6694,342.6631 L259.6694,345.1788 Q258.4194,344.0225 257.4976,343.6475 Q256.5913,343.2725 255.5601,343.2725 Q253.5601,343.2725 252.4976,344.4913 Q251.4351,345.6944 251.4351,348.0538 Q251.4351,350.4131 252.4976,351.6319 Q253.5601,352.835 255.5601,352.835 Q256.5913,352.835 257.4976,352.46 Q258.4194,352.085 259.6694,350.9288 L259.6694,353.4288 Q258.6226,354.1319 257.6069,354.4444 Q256.6069,354.7413 255.4507,354.7413 Q252.5288,354.7413 250.8257,352.9444 Q249.1382,351.1475 249.1382,348.0538 Q249.1382,344.96 250.8257,343.1631 Q252.5288,341.3506 255.4507,341.3506 Q256.6226,341.3506 257.6226,341.6631 Q258.6382,341.96 259.6694,342.6631 Z " fill="#000000"/><text fill="#000000" font-family="sans-serif" font-size="14" lengthAdjust="spacing" textLength="98.2666" x="274.0317" y="353.1036">Requirements</text><line style="stroke:#181818;stroke-width:0.5;" x1="220.75" x2="394.9834" y1="364.2569" y2="364.2569"/><text fill="#000000" font-family="sans-serif" font-size="14" lengthAdjust="spacing" textLength="104.5078" x="225.75" y="381.252">gpu_type : str?</text><text fill="#000000" font-family="sans-serif" font-size="14" lengthAdjust="spacing" textLength="105.0137" x="225.75" y="397.5489">gpu_count : int</text><text fill="#000000" font-family="sans-serif" font-size="14" lengthAdjust="spacing" textLength="146.9316" x="225.75" y="413.8457">min_vram_gb : float?</text><text fill="#000000" font-family="sans-serif" font-size="14" lengthAdjust="spacing" textLength="107.0234" x="225.75" y="430.1426">min_cuda : str?</text><text fill="#000000" font-family="sans-serif" font-size="14" lengthAdjust="spacing" textLength="114.1738" x="225.75" y="446.4395">min_driver : str?</text><text fill="#000000" font-family="sans-serif" font-size="14" lengthAdjust="spacing" textLength="72.0508" x="225.75" y="462.7364">cpus : int?</text><text fill="#000000" font-family="sans-serif" font-size="14" lengthAdjust="spacing" textLength="113.1621" x="225.75" y="479.0332">mem_gb : float?</text><text fill="#000000" font-family="sans-serif" font-size="14" lengthAdjust="spacing" textLength="105.4512" x="225.75" y="495.3301">disk_gb : float?</text><text fill="#000000" font-family="sans-serif" font-size="14" lengthAdjust="spacing" textLength="164.2334" x="225.75" y="511.627">est_runtime : timedelta</text><line style="stroke:#181818;stroke-width:0.5;" x1="220.75" x2="394.9834" y1="518.9288" y2="518.9288"/></g><!--class Capabilities--><g class="entity" data-qualified-name="Capabilities" data-source-line="30" id="ent0004"><rect fill="#F1F1F1" height="76.5938" rx="2.5" ry="2.5" style="stroke:#181818;stroke-width:0.5;" width="258.8594" x="445.44" y="620.9369"/><ellipse cx="529.7886" cy="636.9369" fill="#ADD1B2" rx="11" ry="11" style="stroke:#181818;stroke-width:1;"/><path d="M534.023,631.3431 L534.023,633.8588 Q532.773,632.7025 531.8511,632.3275 Q530.9449,631.9525 529.9136,631.9525 Q527.9136,631.9525 526.8511,633.1713 Q525.7886,634.3744 525.7886,636.7338 Q525.7886,639.0931 526.8511,640.3119 Q527.9136,641.515 529.9136,641.515 Q530.9449,641.515 531.8511,641.14 Q532.773,640.765 534.023,639.6088 L534.023,642.1088 Q532.9761,642.8119 531.9605,643.1244 Q530.9605,643.4213 529.8043,643.4213 Q526.8824,643.4213 525.1793,641.6244 Q523.4918,639.8275 523.4918,636.7338 Q523.4918,633.64 525.1793,631.8431 Q526.8824,630.0306 529.8043,630.0306 Q530.9761,630.0306 531.9761,630.3431 Q532.9918,630.64 534.023,631.3431 Z " fill="#000000"/><text fill="#000000" font-family="sans-serif" font-size="14" lengthAdjust="spacing" textLength="81.6621" x="550.2886" y="641.7836">Capabilities</text><line style="stroke:#181818;stroke-width:0.5;" x1="446.44" x2="703.2994" y1="652.9369" y2="652.9369"/><text fill="#000000" font-family="sans-serif" font-size="14" lengthAdjust="spacing" textLength="246.8594" x="451.44" y="690.2289">satisfies(req : Requirements) : bool</text><line style="stroke:#181818;stroke-width:1;stroke-dasharray:1,2;" x1="446.44" x2="453.3643" y1="669.0853" y2="669.0853"/><text fill="#000000" font-family="sans-serif" font-size="14" lengthAdjust="spacing" textLength="243.0107" x="453.3643" y="673.432">same vocabulary as Requirements</text><line style="stroke:#181818;stroke-width:1;stroke-dasharray:1,2;" x1="696.3751" x2="703.2994" y1="669.0853" y2="669.0853"/></g><!--class Slot--><g class="entity" data-qualified-name="Slot" data-source-line="35" id="ent0005"><rect fill="#F1F1F1" height="129.4844" rx="2.5" ry="2.5" style="stroke:#181818;stroke-width:0.5;" width="225.2402" x="628.25" y="364.8569"/><ellipse cx="723.2046" cy="380.8569" fill="#ADD1B2" rx="11" ry="11" style="stroke:#181818;stroke-width:1;"/><path d="M727.439,375.2631 L727.439,377.7788 Q726.189,376.6225 725.2671,376.2475 Q724.3608,375.8725 723.3296,375.8725 Q721.3296,375.8725 720.2671,377.0913 Q719.2046,378.2944 719.2046,380.6538 Q719.2046,383.0131 720.2671,384.2319 Q721.3296,385.435 723.3296,385.435 Q724.3608,385.435 725.2671,385.06 Q726.189,384.685 727.439,383.5288 L727.439,386.0288 Q726.3921,386.7319 725.3765,387.0444 Q724.3765,387.3413 723.2202,387.3413 Q720.2983,387.3413 718.5952,385.5444 Q716.9077,383.7475 716.9077,380.6538 Q716.9077,377.56 718.5952,375.7631 Q720.2983,373.9506 723.2202,373.9506 Q724.3921,373.9506 725.3921,374.2631 Q726.4077,374.56 727.439,375.2631 Z " fill="#000000"/><text fill="#000000" font-family="sans-serif" font-size="14" lengthAdjust="spacing" textLength="26.8311" x="743.7046" y="385.7036">Slot</text><line style="stroke:#181818;stroke-width:0.5;" x1="629.25" x2="852.4902" y1="396.8569" y2="396.8569"/><text fill="#000000" font-family="sans-serif" font-size="14" lengthAdjust="spacing" textLength="213.2402" x="634.25" y="413.852">provider_name : str  &#171;display&#187;</text><text fill="#000000" font-family="sans-serif" font-size="14" lengthAdjust="spacing" textLength="115.8213" x="634.25" y="430.1489">cost : CostModel</text><text fill="#000000" font-family="sans-serif" font-size="14" lengthAdjust="spacing" textLength="166.8789" x="634.25" y="446.4457">availability : Availability</text><text fill="#000000" font-family="sans-serif" font-size="14" lengthAdjust="spacing" textLength="90.9727" x="634.25" y="462.7426">capacity : int</text><text fill="#000000" font-family="sans-serif" font-size="14" lengthAdjust="spacing" textLength="202.9521" x="634.25" y="479.0395">provider_ref : dict  &#171;opaque&#187;</text><line style="stroke:#181818;stroke-width:0.5;" x1="629.25" x2="852.4902" y1="486.3413" y2="486.3413"/></g><!--class Placement--><g class="entity" data-qualified-name="Placement" data-source-line="43" id="ent0006"><rect fill="#F1F1F1" height="145.7813" rx="2.5" ry="2.5" style="stroke:#181818;stroke-width:0.5;" width="177.7305" x="7" y="356.7069"/><ellipse cx="54.6978" cy="372.7069" fill="#ADD1B2" rx="11" ry="11" style="stroke:#181818;stroke-width:1;"/><path d="M58.9321,367.1131 L58.9321,369.6288 Q57.6821,368.4725 56.7603,368.0975 Q55.854,367.7225 54.8228,367.7225 Q52.8228,367.7225 51.7603,368.9413 Q50.6978,370.1444 50.6978,372.5038 Q50.6978,374.8631 51.7603,376.0819 Q52.8228,377.285 54.8228,377.285 Q55.854,377.285 56.7603,376.91 Q57.6821,376.535 58.9321,375.3788 L58.9321,377.8788 Q57.8853,378.5819 56.8696,378.8944 Q55.8696,379.1913 54.7134,379.1913 Q51.7915,379.1913 50.0884,377.3944 Q48.4009,375.5975 48.4009,372.5038 Q48.4009,369.41 50.0884,367.6131 Q51.7915,365.8006 54.7134,365.8006 Q55.8853,365.8006 56.8853,366.1131 Q57.9009,366.41 58.9321,367.1131 Z " fill="#000000"/><text fill="#000000" font-family="sans-serif" font-size="14" lengthAdjust="spacing" textLength="73.835" x="75.1978" y="377.5536">Placement</text><line style="stroke:#181818;stroke-width:0.5;" x1="8" x2="183.7305" y1="388.7069" y2="388.7069"/><text fill="#000000" font-family="sans-serif" font-size="14" lengthAdjust="spacing" textLength="137.498" x="13" y="405.702">provider_name : str</text><text fill="#000000" font-family="sans-serif" font-size="14" lengthAdjust="spacing" textLength="73.2744" x="13" y="421.9989">job_id : str</text><text fill="#000000" font-family="sans-serif" font-size="14" lengthAdjust="spacing" textLength="165.7305" x="13" y="438.2957">handle : dict  &#171;opaque&#187;</text><text fill="#000000" font-family="sans-serif" font-size="14" lengthAdjust="spacing" textLength="161.0068" x="13" y="454.5926">links : Link[]  &#171;display&#187;</text><text fill="#000000" font-family="sans-serif" font-size="14" lengthAdjust="spacing" textLength="146.6172" x="13" y="470.8895">cost_actual : Money?</text><text fill="#000000" font-family="sans-serif" font-size="14" lengthAdjust="spacing" textLength="107.7207" x="13" y="487.1864">state : JobState</text><line style="stroke:#181818;stroke-width:0.5;" x1="8" x2="183.7305" y1="494.4881" y2="494.4881"/></g><!--class Link--><g class="entity" data-qualified-name="Link" data-source-line="52" id="ent0007"><rect fill="#F1F1F1" height="80.5938" rx="2.5" ry="2.5" style="stroke:#181818;stroke-width:0.5;" width="78.0146" x="56.86" y="618.9369"/><ellipse cx="79.6651" cy="634.9369" fill="#ADD1B2" rx="11" ry="11" style="stroke:#181818;stroke-width:1;"/><path d="M83.8995,629.3431 L83.8995,631.8588 Q82.6495,630.7025 81.7276,630.3275 Q80.8214,629.9525 79.7901,629.9525 Q77.7901,629.9525 76.7276,631.1713 Q75.6651,632.3744 75.6651,634.7338 Q75.6651,637.0931 76.7276,638.3119 Q77.7901,639.515 79.7901,639.515 Q80.8214,639.515 81.7276,639.14 Q82.6495,638.765 83.8995,637.6088 L83.8995,640.1088 Q82.8526,640.8119 81.837,641.1244 Q80.837,641.4213 79.6808,641.4213 Q76.7589,641.4213 75.0558,639.6244 Q73.3683,637.8275 73.3683,634.7338 Q73.3683,631.64 75.0558,629.8431 Q76.7589,628.0306 79.6808,628.0306 Q80.8526,628.0306 81.8526,628.3431 Q82.8683,628.64 83.8995,629.3431 Z " fill="#000000"/><text fill="#000000" font-family="sans-serif" font-size="14" lengthAdjust="spacing" textLength="28.6699" x="95.3996" y="639.7836">Link</text><line style="stroke:#181818;stroke-width:0.5;" x1="57.86" x2="133.8746" y1="650.9369" y2="650.9369"/><text fill="#000000" font-family="sans-serif" font-size="14" lengthAdjust="spacing" textLength="66.0146" x="62.86" y="667.932">label : str</text><text fill="#000000" font-family="sans-serif" font-size="14" lengthAdjust="spacing" textLength="50.6748" x="62.86" y="684.2289">url : str</text><line style="stroke:#181818;stroke-width:0.5;" x1="57.86" x2="133.8746" y1="691.5306" y2="691.5306"/></g><!--class ProviderFacts--><g class="entity" data-qualified-name="ProviderFacts" data-source-line="57" id="ent0008"><rect fill="#F1F1F1" height="145.7813" rx="2.5" ry="2.5" style="stroke:#181818;stroke-width:0.5;" width="302.5547" x="551.59" y="76.8869"/><ellipse cx="650.964" cy="92.8869" fill="#ADD1B2" rx="11" ry="11" style="stroke:#181818;stroke-width:1;"/><path d="M655.1984,87.2931 L655.1984,89.8088 Q653.9484,88.6525 653.0265,88.2775 Q652.1203,87.9025 651.089,87.9025 Q649.089,87.9025 648.0265,89.1213 Q646.964,90.3244 646.964,92.6838 Q646.964,95.0431 648.0265,96.2619 Q649.089,97.465 651.089,97.465 Q652.1203,97.465 653.0265,97.09 Q653.9484,96.715 655.1984,95.5588 L655.1984,98.0588 Q654.1515,98.7619 653.1359,99.0744 Q652.1359,99.3713 650.9796,99.3713 Q648.0578,99.3713 646.3546,97.5744 Q644.6671,95.7775 644.6671,92.6838 Q644.6671,89.59 646.3546,87.7931 Q648.0578,85.9806 650.9796,85.9806 Q652.1515,85.9806 653.1515,86.2931 Q654.1671,86.59 655.1984,87.2931 Z " fill="#000000"/><text fill="#000000" font-family="sans-serif" font-size="14" lengthAdjust="spacing" textLength="95.3066" x="671.464" y="97.7336">ProviderFacts</text><line style="stroke:#181818;stroke-width:0.5;" x1="552.59" x2="853.1447" y1="108.8869" y2="108.8869"/><text fill="#000000" font-family="sans-serif" font-size="14" lengthAdjust="spacing" textLength="137.498" x="557.59" y="125.882">provider_name : str</text><text fill="#000000" font-family="sans-serif" font-size="14" lengthAdjust="spacing" textLength="174.3711" x="557.59" y="142.1789">discovered_at : datetime</text><text fill="#000000" font-family="sans-serif" font-size="14" lengthAdjust="spacing" textLength="95.5732" x="557.59" y="158.4757">ttl : timedelta</text><text fill="#000000" font-family="sans-serif" font-size="14" lengthAdjust="spacing" textLength="93.707" x="557.59" y="174.7726">limits : Limits</text><text fill="#000000" font-family="sans-serif" font-size="14" lengthAdjust="spacing" textLength="139.1113" x="557.59" y="191.0695">budget_state : dict?</text><text fill="#000000" font-family="sans-serif" font-size="14" lengthAdjust="spacing" textLength="290.5547" x="557.59" y="207.3664">health : OK | DEGRADED | UNREACHABLE</text><line style="stroke:#181818;stroke-width:0.5;" x1="552.59" x2="853.1447" y1="214.6681" y2="214.6681"/></g><!--class BudgetLedger--><g class="entity" data-qualified-name="BudgetLedger" data-source-line="66" id="ent0009"><rect fill="#F1F1F1" height="80.5938" rx="2.5" ry="2.5" style="stroke:#181818;stroke-width:0.5;" width="154.8848" x="916.42" y="109.4769"/><ellipse cx="942.209" cy="125.4769" fill="#ADD1B2" rx="11" ry="11" style="stroke:#181818;stroke-width:1;"/><path d="M946.4434,119.8831 L946.4434,122.3988 Q945.1934,121.2425 944.2715,120.8675 Q943.3653,120.4925 942.334,120.4925 Q940.334,120.4925 939.2715,121.7113 Q938.209,122.9144 938.209,125.2738 Q938.209,127.6331 939.2715,128.8519 Q940.334,130.055 942.334,130.055 Q943.3653,130.055 944.2715,129.68 Q945.1934,129.305 946.4434,128.1488 L946.4434,130.6488 Q945.3965,131.3519 944.3809,131.6644 Q943.3809,131.9613 942.2246,131.9613 Q939.3028,131.9613 937.5996,130.1644 Q935.9121,128.3675 935.9121,125.2738 Q935.9121,122.18 937.5996,120.3831 Q939.3028,118.5706 942.2246,118.5706 Q943.3965,118.5706 944.3965,118.8831 Q945.4121,119.18 946.4434,119.8831 Z " fill="#000000"/><text fill="#000000" font-family="sans-serif" font-size="14" lengthAdjust="spacing" textLength="98.9092" x="958.6066" y="130.3236">BudgetLedger</text><line style="stroke:#181818;stroke-width:0.5;" x1="917.42" x2="1070.3048" y1="141.4769" y2="141.4769"/><text fill="#000000" font-family="sans-serif" font-size="14" lengthAdjust="spacing" textLength="142.8848" x="922.42" y="158.472">window : day | week</text><text fill="#000000" font-family="sans-serif" font-size="14" lengthAdjust="spacing" textLength="85.1963" x="922.42" y="174.7689">cap : Money</text><line style="stroke:#181818;stroke-width:0.5;" x1="917.42" x2="1070.3048" y1="182.0706" y2="182.0706"/></g><!--class LedgerEntry--><g class="entity" data-qualified-name="LedgerEntry" data-source-line="71" id="ent0010"><rect fill="#F1F1F1" height="129.4844" rx="2.5" ry="2.5" style="stroke:#181818;stroke-width:0.5;" width="184.0537" x="901.84" y="364.8569"/><ellipse cx="946.7145" cy="380.8569" fill="#ADD1B2" rx="11" ry="11" style="stroke:#181818;stroke-width:1;"/><path d="M950.9489,375.2631 L950.9489,377.7788 Q949.6989,376.6225 948.777,376.2475 Q947.8708,375.8725 946.8395,375.8725 Q944.8395,375.8725 943.777,377.0913 Q942.7145,378.2944 942.7145,380.6538 Q942.7145,383.0131 943.777,384.2319 Q944.8395,385.435 946.8395,385.435 Q947.8708,385.435 948.777,385.06 Q949.6989,384.685 950.9489,383.5288 L950.9489,386.0288 Q949.902,386.7319 948.8864,387.0444 Q947.8864,387.3413 946.7301,387.3413 Q943.8083,387.3413 942.1051,385.5444 Q940.4176,383.7475 940.4176,380.6538 Q940.4176,377.56 942.1051,375.7631 Q943.8083,373.9506 946.7301,373.9506 Q947.902,373.9506 948.902,374.2631 Q949.9176,374.56 950.9489,375.2631 Z " fill="#000000"/><text fill="#000000" font-family="sans-serif" font-size="14" lengthAdjust="spacing" textLength="85.8047" x="967.2145" y="385.7036">LedgerEntry</text><line style="stroke:#181818;stroke-width:0.5;" x1="902.84" x2="1084.8937" y1="396.8569" y2="396.8569"/><text fill="#000000" font-family="sans-serif" font-size="14" lengthAdjust="spacing" textLength="73.2744" x="907.84" y="413.852">job_id : str</text><text fill="#000000" font-family="sans-serif" font-size="14" lengthAdjust="spacing" textLength="90.7949" x="907.84" y="430.1489">provider : str</text><text fill="#000000" font-family="sans-serif" font-size="14" lengthAdjust="spacing" textLength="114.0508" x="907.84" y="446.4457">amount : Money</text><text fill="#000000" font-family="sans-serif" font-size="14" lengthAdjust="spacing" textLength="172.0537" x="907.84" y="462.7426">kind : committed | spent</text><text fill="#000000" font-family="sans-serif" font-size="14" lengthAdjust="spacing" textLength="90.8838" x="907.84" y="479.0395">at : datetime</text><line style="stroke:#181818;stroke-width:0.5;" x1="902.84" x2="1084.8937" y1="486.3413" y2="486.3413"/></g><!--reverse link Job to Requirements--><g class="link" data-entity-1="ent0002" data-entity-2="ent0003" data-link-type="composition" data-source-line="79" id="lnk11"><path codeLine="79" d="M246.6544,266.6412 C256.1344,291.7112 261.96,307.1469 271.3,331.8469" fill="none" id="Job-backto-Requirements" style="stroke:#181818;stroke-width:1;"/><polygon fill="#181818" points="242.41,255.4169,240.7907,262.4438,246.6544,266.6412,248.2736,259.6142,242.41,255.4169" style="stroke:#181818;stroke-width:1;"/></g><!--reverse link Job to Placement--><g class="link" data-entity-1="ent0002" data-entity-2="ent0006" data-link-type="aggregation" data-source-line="80" id="lnk12"><path codeLine="80" d="M158.2547,266.6141 C145.2747,300.2941 135.51,325.6569 123.65,356.4569" fill="none" id="Job-backto-Placement" style="stroke:#181818;stroke-width:1;"/><polygon fill="none" points="162.57,255.4169,156.6799,259.577,158.2547,266.6141,164.1447,262.4539,162.57,255.4169" style="stroke:#181818;stroke-width:1;"/><text fill="#000000" font-family="sans-serif" font-size="13" lengthAdjust="spacing" textLength="58.9443" x="150.37" y="298.3238">attempts</text><text fill="#000000" font-family="sans-serif" font-size="13" lengthAdjust="spacing" textLength="8.271" x="151.4651" y="275.4433">1</text><text fill="#000000" font-family="sans-serif" font-size="13" lengthAdjust="spacing" textLength="6.5" x="120.1144" y="345.5922">*</text></g><!--reverse link Slot to Capabilities--><g class="link" data-entity-1="ent0005" data-entity-2="ent0004" data-link-type="composition" data-source-line="81" id="lnk13"><path codeLine="81" d="M687.1105,504.3033 C657.4805,544.9433 627.23,586.4269 602.29,620.6269" fill="none" id="Slot-backto-Capabilities" style="stroke:#181818;stroke-width:1;"/><polygon fill="#181818" points="694.18,494.6069,687.4131,497.0986,687.1105,504.3033,693.8774,501.8116,694.18,494.6069" style="stroke:#181818;stroke-width:1;"/></g><!--reverse link Placement to Link--><g class="link" data-entity-1="ent0006" data-entity-2="ent0007" data-link-type="aggregation" data-source-line="82" id="lnk14"><path codeLine="82" d="M95.87,514.9369 C95.87,553.2069 95.87,586.7369 95.87,618.5569" fill="none" id="Placement-backto-Link" style="stroke:#181818;stroke-width:1;"/><polygon fill="none" points="95.87,502.9369,91.87,508.9369,95.87,514.9369,99.87,508.9369,95.87,502.9369" style="stroke:#181818;stroke-width:1;"/><text fill="#000000" font-family="sans-serif" font-size="13" lengthAdjust="spacing" textLength="8.271" x="87.5142" y="522.4623">1</text><text fill="#000000" font-family="sans-serif" font-size="13" lengthAdjust="spacing" textLength="6.5" x="89.4321" y="607.9562">*</text></g><!--reverse link ProviderFacts to Capabilities--><g class="link" data-entity-1="ent0008" data-entity-2="ent0004" data-link-type="composition" data-source-line="83" id="lnk15"><path codeLine="83" d="M652.9923,233.4044 C635.2323,265.7344 622.11,294.5169 610.87,332.2569 C580.71,433.4769 575.35,559.1669 574.69,620.7069" fill="none" id="ProviderFacts-backto-Capabilities" style="stroke:#181818;stroke-width:1;"/><polygon fill="#181818" points="658.77,222.8869,652.3753,226.2198,652.9923,233.4044,659.387,230.0715,658.77,222.8869" style="stroke:#181818;stroke-width:1;"/></g><!--reverse link ProviderFacts to Slot--><g class="link" data-entity-1="ent0008" data-entity-2="ent0005" data-link-type="composition" data-source-line="84" id="lnk16"><path codeLine="84" d="M714.3753,234.9363 C720.3753,278.8263 726.35,322.4669 732.13,364.7369" fill="none" id="ProviderFacts-backto-Slot" style="stroke:#181818;stroke-width:1;"/><polygon fill="#181818" points="712.75,223.0469,709.5995,229.5334,714.3753,234.9363,717.5258,228.4498,712.75,223.0469" style="stroke:#181818;stroke-width:1;"/><text fill="#000000" font-family="sans-serif" font-size="13" lengthAdjust="spacing" textLength="40.5933" x="724" y="298.3238">offer()</text><text fill="#000000" font-family="sans-serif" font-size="13" lengthAdjust="spacing" textLength="6.5" x="724.8733" y="353.8964">*</text></g><!--reverse link BudgetLedger to LedgerEntry--><g class="link" data-entity-1="ent0009" data-entity-2="ent0010" data-link-type="aggregation" data-source-line="85" id="lnk17"><path codeLine="85" d="M993.87,202.2869 C993.87,247.6769 993.87,310.8069 993.87,364.5769" fill="none" id="BudgetLedger-backto-LedgerEntry" style="stroke:#181818;stroke-width:1;"/><polygon fill="none" points="993.87,190.2869,989.87,196.2869,993.87,202.2869,997.87,196.2869,993.87,190.2869" style="stroke:#181818;stroke-width:1;"/><text fill="#000000" font-family="sans-serif" font-size="13" lengthAdjust="spacing" textLength="8.271" x="985.2553" y="210.0164">1</text><text fill="#000000" font-family="sans-serif" font-size="13" lengthAdjust="spacing" textLength="6.5" x="987.5696" y="353.7189">*</text></g><!--link Requirements to Capabilities--><g class="link" data-entity-1="ent0003" data-entity-2="ent0004" data-link-type="dependency" data-source-line="86" id="lnk18"><path codeLine="86" d="M286.44,527.1569 C286.56,549.2969 291.3,571.4469 304.87,588.9369 C322.96,612.2569 379.232,627.9852 439.352,639.2152" fill="none" id="Requirements-to-Capabilities" style="stroke:#181818;stroke-width:1;stroke-dasharray:7,7;"/><polygon fill="#181818" points="445.25,640.3169,437.1375,634.7323,440.335,639.3988,435.6686,642.5963,445.25,640.3169" style="stroke:#181818;stroke-width:1;"/><text fill="#000000" font-family="sans-serif" font-size="13" lengthAdjust="spacing" textLength="77.4414" x="388.58" y="570.0038">matched by</text><text fill="#000000" font-family="sans-serif" font-size="13" lengthAdjust="spacing" textLength="242.8613" x="305.87" y="585.1366">capabilities superset of requirements</text></g><?plantuml-src VLJRRXCn47tVhx3or5OYWjUeQfGcuTe2IiKJe9NNdatS-BArnocX8F4HV25VmjYvx2OjlEpQnvupj-D1XHgOCrRvQDcVNx-PT8OhouoJe8kmLBRXdXicD0zXXEXL5H7U26Tlr7TWppjNme9BTw_idDLS1oYARCFUkeez58mfoGOieAUbvGRscyQxMn2uttjOgQ2S9M06ZPj1JQ1mnd3RCaZWKYkRM2RRvP1Wmx-LmeL4Tkqih8UPNpclS4sOiaX0G8x9a0AxISliCqG3PUsTeOFn0iIoSNIRd0yPEp-l8qOFRE7SykAY-BbBRGPtKNamO37a7ETDB77TR9CRRX7XeiMzUwDikQ9wbVEAi5exZiCjBABahMb2f5Shy2qccXWsJFa67BD85PP740GigRceSitJZpgBlCrYp1jUAQrGmIQBVf-5rA6L4xoAcliruqV9zlkfa1nLgCdgnCDTRbTxuvJsbNEwTNEZ7MPwQlXAIV1bAuDKOmgzqNnDzKtjpZqSq-yw2v4nlk9AR-9ChHnrjic0SX3T9k-TUAW9b8eKHavSm-yYT7luKNEHG_vNR8JUkghio7T1IjJm52jZfCHbwj0L_Jz_VIglaWkCN7Sb-aYH--WIJGwCSWMzZo3wtRhDOnlvIw8F_yc5mX6ED0MovAd6almbKT0HeZvGICh6ADoaanQ4L57E0SjTnAa2AOC5S8qB0ZwyOp_OPFfgDffC9xJyz7us7OrVZowlfcsibvda2kZhSwWqDMXqv6ZMP7GFiDmqTLUbJaMorTGYgVBXSMzsIUy1RhQlRyF36CshT3rD58K8alo51h9e3Wj2BjFiEdlsx43P6Uozw3571xspNaT10s90C0rTocfFfjtNLRHNkmIfoSLX_nvRFZfEbjdBWBcw1dzoMXpKzS13MxJYw1rV7Bx_0SrG50igIxN-OaNtACG6V00aTpGmMvA_?></g></svg>