<?plantuml 1.2026.1?><svg xmlns="http://www.w3.org/2000/svg" xmlns:xlink="http://www.w3.org/1999/xlink" contentStyleType="text/css" data-diagram-type="CLASS" height="658px" preserveAspectRatio="none" style="width:852px;height:658px;background:#FFFFFF;" version="1.1" viewBox="0 0 852 658" width="852px" zoomAndPan="magnify"><title>omnirun &#8212; the four seam contracts (everything crosses here)</title><defs/><g><g class="title" data-source-line="1"><text fill="#000000" font-family="sans-serif" font-size="14" font-weight="bold" lengthAdjust="spacing" textLength="455.9023" x="191.4177" y="22.9951">omnirun &#8212; the four seam contracts (everything crosses here)</text></g><!--class Control--><g class="entity" data-qualified-name="Control" data-source-line="5" id="ent0002"><rect fill="#F1F1F1" height="145.7813" rx="2.5" ry="2.5" style="stroke:#181818;stroke-width:0.5;" width="293.3535" x="326.18" y="44.2969"/><ellipse cx="443.1497" cy="60.2969" fill="#B4A7E5" rx="11" ry="11" style="stroke:#181818;stroke-width:1;"/><path d="M441.3216,53.875 L443.5247,53.875 L443.5247,66.7969 L441.3216,66.7969 L441.3216,53.875 Z " fill="#000000"/><text fill="#000000" font-family="sans-serif" font-size="14" font-style="italic" lengthAdjust="spacing" textLength="50.9141" x="463.6497" y="65.1436">Control</text><line style="stroke:#181818;stroke-width:0.5;" x1="327.18" x2="618.5335" y1="76.2969" y2="76.2969"/><line style="stroke:#181818;stroke-width:0.5;" x1="327.18" x2="618.5335" y1="84.2969" y2="84.2969"/><text fill="#000000" font-family="sans-serif" font-size="14" lengthAdjust="spacing" textLength="139.6992" x="332.18" y="101.292">submit(spec) : JobId</text><text fill="#000000" font-family="sans-serif" font-size="14" lengthAdjust="spacing" textLength="116.0059" x="332.18" y="117.5889">ps() / status(job)</text><text fill="#000000" font-family="sans-serif" font-size="14" lengthAdjust="spacing" textLength="111.0908" x="332.18" y="133.8857">logs(job, follow)</text><text fill="#000000" font-family="sans-serif" font-size="14" lengthAdjust="spacing" textLength="77.6152" x="332.18" y="150.1826">cancel(job)</text><text fill="#000000" font-family="sans-serif" font-size="14" lengthAdjust="spacing" textLength="281.3535" x="332.18" y="166.4795">reprioritize(job, priority | deadline | pay)</text><text fill="#000000" font-family="sans-serif" font-size="14" lengthAdjust="spacing" textLength="147.7383" x="332.18" y="182.7764">budget(window, cap)</text></g><!--class Scheduler--><g class="entity" data-qualified-name="Scheduler" data-source-line="14" id="ent0003"><rect fill="#F1F1F1" height="88.8594" rx="2.5" ry="2.5" style="stroke:#181818;stroke-width:0.5;" width="293.6543" x="109.03" y="319.9869"/><ellipse cx="216.5627" cy="340.1197" fill="#B4A7E5" rx="11" ry="11" style="stroke:#181818;stroke-width:1;"/><path d="M214.7346,333.6978 L216.9377,333.6978 L216.9377,346.6197 L214.7346,346.6197 L214.7346,333.6978 Z " fill="#000000"/><text fill="#000000" font-family="sans-serif" font-size="12" font-style="italic" lengthAdjust="spacing" textLength="42.2227" x="250.9958" y="336.1255">&#171;pure&#187;</text><text fill="#000000" font-family="sans-serif" font-size="14" font-style="italic" lengthAdjust="spacing" textLength="70.0889" x="237.0627" y="351.9507">Scheduler</text><line style="stroke:#181818;stroke-width:0.5;" x1="110.03" x2="401.6843" y1="360.2525" y2="360.2525"/><text fill="#000000" font-family="sans-serif" font-size="14" lengthAdjust="spacing" textLength="281.6543" x="115.03" y="377.2476">tick(jobs, slots, ledger, now) : Decision[]</text><line style="stroke:#181818;stroke-width:1;" x1="110.03" x2="401.6843" y1="384.5494" y2="384.5494"/><text fill="#000000" font-family="sans-serif" font-size="14" lengthAdjust="spacing" textLength="212.5225" x="115.03" y="401.5445">no I/O, no backend knowledge</text></g><!--class Store--><g class="entity" data-qualified-name="Store" data-source-line="20" id="ent0004"><rect fill="#F1F1F1" height="113.1875" rx="2.5" ry="2.5" style="stroke:#181818;stroke-width:0.5;" width="295.8418" x="360.93" y="538.7469"/><ellipse cx="485.9456" cy="554.7469" fill="#B4A7E5" rx="11" ry="11" style="stroke:#181818;stroke-width:1;"/><path d="M484.1175,548.325 L486.3206,548.325 L486.3206,561.2469 L484.1175,561.2469 L484.1175,548.325 Z " fill="#000000"/><text fill="#000000" font-family="sans-serif" font-size="14" font-style="italic" lengthAdjust="spacing" textLength="37.3105" x="506.4456" y="559.5936">Store</text><line style="stroke:#181818;stroke-width:0.5;" x1="361.93" x2="655.7718" y1="570.7469" y2="570.7469"/><text fill="#000000" font-family="sans-serif" font-size="14" lengthAdjust="spacing" textLength="283.8418" x="366.93" y="587.742">jobs / placements / facts / ledger : CRUD</text><text fill="#000000" font-family="sans-serif" font-size="14" lengthAdjust="spacing" textLength="263.8467" x="366.93" y="604.0389">reserve(slot, job) : bool  &#171;atomic txn&#187;</text><text fill="#000000" font-family="sans-serif" font-size="14" lengthAdjust="spacing" textLength="156.6387" x="366.93" y="620.3357">transaction() : context</text><line style="stroke:#181818;stroke-width:1;" x1="361.93" x2="655.7718" y1="627.6375" y2="627.6375"/><text fill="#000000" font-family="sans-serif" font-size="14" lengthAdjust="spacing" textLength="159.127" x="366.93" y="644.6326">impl: SQLite | Postgres</text></g><!--class Provider--><g class="entity" data-qualified-name="Provider" data-source-line="28" id="ent0005"><rect fill="#F1F1F1" height="194.6719" rx="2.5" ry="2.5" style="stroke:#181818;stroke-width:0.5;" width="247.7578" x="597.98" y="267.0769"/><ellipse cx="688.5117" cy="283.0769" fill="#B4A7E5" rx="11" ry="11" style="stroke:#181818;stroke-width:1;"/><path d="M686.6836,276.655 L688.8867,276.655 L688.8867,289.5769 L686.6836,289.5769 L686.6836,276.655 Z " fill="#000000"/><text fill="#000000" font-family="sans-serif" font-size="14" font-style="italic" lengthAdjust="spacing" textLength="58.1943" x="709.0117" y="287.9236">Provider</text><line style="stroke:#181818;stroke-width:0.5;" x1="598.98" x2="844.7378" y1="299.0769" y2="299.0769"/><text fill="#000000" font-family="sans-serif" font-size="14" lengthAdjust="spacing" textLength="71.8594" x="603.98" y="316.072">name : str</text><line style="stroke:#181818;stroke-width:0.5;" x1="598.98" x2="844.7378" y1="323.3738" y2="323.3738"/><text fill="#000000" font-family="sans-serif" font-size="14" lengthAdjust="spacing" textLength="178.835" x="603.98" y="340.3689">discover() : ProviderFacts</text><text fill="#000000" font-family="sans-serif" font-size="14" lengthAdjust="spacing" textLength="193.3545" x="603.98" y="356.6657">offer(Requirements) : Slot[]</text><text fill="#000000" font-family="sans-serif" font-size="14" lengthAdjust="spacing" textLength="193.3545" x="603.98" y="372.9626">place(Job, Slot) : Placement</text><text fill="#000000" font-family="sans-serif" font-size="14" lengthAdjust="spacing" textLength="168.2188" x="603.98" y="389.2595">poll(Placement) : Status</text><text fill="#000000" font-family="sans-serif" font-size="14" lengthAdjust="spacing" textLength="228.8535" x="603.98" y="405.5564">cancel(Placement, mode) : None</text><text fill="#000000" font-family="sans-serif" font-size="14" lengthAdjust="spacing" textLength="235.7578" x="603.98" y="421.8532">stream_logs(Placement) : Iterator</text><text fill="#000000" font-family="sans-serif" font-size="14" lengthAdjust="spacing" textLength="230.2549" x="603.98" y="438.1501">collect_outputs(Placement, dest)</text><text fill="#000000" font-family="sans-serif" font-size="14" lengthAdjust="spacing" textLength="77.6494" x="603.98" y="454.447">gc() : None</text></g><g class="entity" data-qualified-name="GMN11" data-source-line="45" id="ent0012"><path d="M6,575.2069 L6,615.4725 A0,0 0 0 0 6,615.4725 L325.708,615.4725 A0,0 0 0 0 325.708,615.4725 L325.708,585.2069 L315.708,575.2069 L177.55,575.2069 L238.61,409.2869 L169.55,575.2069 L6,575.2069 A0,0 0 0 0 6,575.2069" fill="#FEFFDD" style="stroke:#181818;stroke-width:0.5;"/><path d="M315.708,575.2069 L315.708,585.2069 L325.708,585.2069 L315.708,575.2069" fill="#FEFFDD" style="stroke:#181818;stroke-width:0.5;"/><text fill="#000000" font-family="sans-serif" font-size="13" lengthAdjust="spacing" textLength="216.3789" x="12" y="592.2738">sees only Slot.capabilities / cost /</text><text fill="#000000" font-family="sans-serif" font-size="13" lengthAdjust="spacing" textLength="298.708" x="12" y="607.4066">availability / capacity &#8212; never provider_name</text></g><!--link Control to Scheduler--><g class="link" data-entity-1="ent0002" data-entity-2="ent0003" data-link-type="dependency" data-source-line="40" id="lnk6"><path codeLine="40" d="M408.92,190.4369 C371.79,232.3969 330.2052,279.3827 298.4952,315.2327" fill="none" id="Control-to-Scheduler" style="stroke:#181818;stroke-width:1;stroke-dasharray:7,7;"/><polygon fill="#181818" points="294.52,319.7269,303.4789,315.6357,297.8327,315.9817,297.4867,310.3354,294.52,319.7269" style="stroke:#181818;stroke-width:1;"/><text fill="#000000" font-family="sans-serif" font-size="13" lengthAdjust="spacing" textLength="39.6729" x="378.35" y="233.1438">drives</text></g><!--link Control to Store--><g class="link" data-entity-1="ent0002" data-entity-2="ent0004" data-link-type="dependency" data-source-line="41" id="lnk7"><path codeLine="41" d="M474.9,190.3669 C477.29,259.9769 482.07,368.2369 490.85,461.7469 C493.22,486.9569 495.9915,508.7972 499.3615,532.3872" fill="none" id="Control-to-Store" style="stroke:#181818;stroke-width:1;stroke-dasharray:7,7;"/><polygon fill="#181818" points="500.21,538.3269,502.897,528.8516,499.5029,533.3771,494.9774,529.983,500.21,538.3269" style="stroke:#181818;stroke-width:1;"/><text fill="#000000" font-family="sans-serif" font-size="13" lengthAdjust="spacing" textLength="88.4355" x="491.85" y="368.9838">reads / writes</text></g><!--link Control to Provider--><g class="link" data-entity-1="ent0002" data-entity-2="ent0005" data-link-type="dependency" data-source-line="42" id="lnk8"><path codeLine="42" d="M546.22,190.4369 C570.46,214.3169 593.5543,237.0675 619.3543,262.4675" fill="none" id="Control-to-Provider" style="stroke:#181818;stroke-width:1;stroke-dasharray:7,7;"/><polygon fill="#181818" points="623.63,266.6769,620.0228,257.5124,620.067,263.1691,614.4103,263.2133,623.63,266.6769" style="stroke:#181818;stroke-width:1;"/><text fill="#000000" font-family="sans-serif" font-size="13" lengthAdjust="spacing" textLength="218.9688" x="590.89" y="233.1438">dispatch place/poll/cancel/stream</text></g><!--link Scheduler to Store--><g class="link" data-entity-1="ent0003" data-entity-2="ent0004" data-link-type="dependency" data-source-line="43" id="lnk9"><path codeLine="43" d="M254.13,409.3369 C255.22,440.4369 261.64,481.3369 284.85,508.7469 C291.16,516.1969 317.2696,527.5667 354.9496,541.6467" fill="none" id="Scheduler-to-Store" style="stroke:#181818;stroke-width:1;stroke-dasharray:7,7;"/><polygon fill="#181818" points="360.57,543.7469,353.5395,536.8496,355.8863,541.9967,350.7392,544.3435,360.57,543.7469" style="stroke:#181818;stroke-width:1;"/><text fill="#000000" font-family="sans-serif" font-size="13" lengthAdjust="spacing" textLength="160.3037" x="285.85" y="504.8138">(state passed in &#8212; pure)</text></g><!--link Provider to Store--><g class="link" data-entity-1="ent0005" data-entity-2="ent0004" data-link-type="dependency" data-source-line="44" id="lnk10"><path codeLine="44" d="M631.83,462.1669 C607.65,488.1569 586.3867,511.0139 565.0367,533.9639" fill="none" id="Provider-to-Store" style="stroke:#181818;stroke-width:1;stroke-dasharray:7,7;"/><polygon fill="#181818" points="560.95,538.3569,570.0088,534.4919,564.3556,534.696,564.1514,529.0429,560.95,538.3569" style="stroke:#181818;stroke-width:1;"/><text fill="#000000" font-family="sans-serif" font-size="13" lengthAdjust="spacing" textLength="133.4658" x="603.6" y="504.8138">facts (via Discovery)</text></g><?plantuml-src NLJRRjim37ttL_3H0TBwFIW232i6j1YshjsUjg6G9JhH8ekUHAVDBi0-Ob-uBnafDsdIbyIYZWyFoKEpvu10VVHfZF3lpr_WDK97OuACfWTBaPEndA76BQOThtrSWKsKCsPOOy9PbJS-3YO9Eg-DemT5T2PaFBfns9any4Tyv5V1hsAFaI5WnrNb8sFgZ4LuhSaemCyA88zjxxdE0zePBE2QsYiduI7NCsWWi-4nrz-edKamqAeypqLu2FIWCMkYnR1791oIf-JP_y09-NJUmI_HPbpm4ULnC3k5jwDR8TTIYPGp5wvXLlq-Ldfdr-Z6W0akBeOnuN9PHBEt6wNFSyY1MFu22bEQGnHLKiObMfyznSzV1Nrs9Z-HuAfvhm1eZTrWTB0HS7dlHKwcX2MDPf0c3472saWzT6L8pLD2IVNwzjDbgJnZscAjUkRwfifeIReiqWrJxotmOrmkLNuoCGkF2AmLfiENWUsb-du82xZxyDQpzkg6Cg-4_bJbJQAjTw90XKRJe_1aJd9mFbiI3nNgFUoDofPBwZgvkSNleqzJJOgw4z6bLQNK-be7fx72iAzUhsNizI5GtYm6UVR1uN8EFJbKo3kAg4RZ94Q_BnuweRYIagH1AjqAFrg-fv67aVCncyFCQfcLhG-aqf2zbS_FbqTcMO1BVYijExakSrt8f8pJ2Jw8BLz03arTQ1S7mtOzjQJHofkfncQgf7fETynUwygW65mMru6VTbsjEwiExCVuoK_rrXkuV1gSh4OauMY9nJSoifFACie7WMBObGcToywOrWVPEDIYh9W5cY_HR8qFqyLEmuAo-gXgedvXP34dDVTgdly0?></g></svg>