<?plantuml 1.2026.1?><svg xmlns="http://www.w3.org/2000/svg" xmlns:xlink="http://www.w3.org/1999/xlink" contentStyleType="text/css" data-diagram-type="SEQUENCE" height="946px" preserveAspectRatio="none" style="width:1403px;height:946px;background:#FFFFFF;" version="1.1" viewBox="0 0 1403 946" width="1403px" zoomAndPan="magnify"><title>Submit -&gt; run -&gt; collect (happy path)</title><defs/><g><text fill="#000000" font-family="sans-serif" font-size="14" font-weight="bold" lengthAdjust="spacing" textLength="279.0977" x="558.2747" y="27.9951">Submit -&gt; run -&gt; collect (happy path)</text><g class="participant-lifeline" data-entity-uid="part1" data-qualified-name="User" id="part1-lifeline"><g><title>User</title><rect fill="#000000" fill-opacity="0.00000" height="747.1875" width="8" x="19.9551" y="118.5938"/><line style="stroke:#181818;stroke-width:0.5;stroke-dasharray:5,5;" x1="23" x2="23" y1="118.5938" y2="865.7813"/></g></g><g class="participant-lifeline" data-entity-uid="part2" data-qualified-name="CLI" id="part2-lifeline"><g><title>CLI</title><rect fill="#000000" fill-opacity="0.00000" height="747.1875" width="8" x="412.3984" y="118.5938"/><line style="stroke:#181818;stroke-width:0.5;stroke-dasharray:5,5;" x1="415.5464" x2="415.5464" y1="118.5938" y2="865.7813"/></g></g><g class="participant-lifeline" data-entity-uid="part3" data-qualified-name="Control" id="part3-lifeline"><g><title>Control</title><rect fill="#000000" fill-opacity="0.00000" height="747.1875" width="8" x="673.293" y="118.5938"/><line style="stroke:#181818;stroke-width:0.5;stroke-dasharray:5,5;" x1="676.8359" x2="676.8359" y1="118.5938" y2="865.7813"/></g></g><g class="participant-lifeline" data-entity-uid="part4" data-qualified-name="Scheduler" id="part4-lifeline"><g><title>Scheduler</title><rect fill="#000000" fill-opacity="0.00000" height="747.1875" width="8" x="950.1201" y="118.5938"/><line style="stroke:#181818;stroke-width:0.5;stroke-dasharray:5,5;" x1="954.0757" x2="954.0757" y1="118.5938" y2="865.7813"/></g></g><g class="participant-lifeline" data-entity-uid="part5" data-qualified-name="Discovery" id="part5-lifeline"><g><title>Discovery</title><rect fill="#000000" fill-opacity="0.00000" height="747.1875" width="8" x="1043.7476" y="118.5938"/><line style="stroke:#181818;stroke-width:0.5;stroke-dasharray:5,5;" x1="1047.1646" x2="1047.1646" y1="118.5938" y2="865.7813"/></g></g><g class="participant-lifeline" data-entity-uid="part6" data-qualified-name="Store" id="part6-lifeline"><g><title>Store</title><rect fill="#000000" fill-opacity="0.00000" height="747.1875" width="8" x="1170.021" y="118.5938"/><line style="stroke:#181818;stroke-width:0.5;stroke-dasharray:5,5;" x1="1173.3657" x2="1173.3657" y1="118.5938" y2="865.7813"/></g></g><g class="participant-lifeline" data-entity-uid="part7" data-qualified-name="P" id="part7-lifeline"><g><title>Provider</title><rect fill="#000000" fill-opacity="0.00000" height="747.1875" width="8" x="1340.9507" y="118.5938"/><line style="stroke:#181818;stroke-width:0.5;stroke-dasharray:5,5;" x1="1344.2544" x2="1344.2544" y1="118.5938" y2="865.7813"/></g></g><g class="participant participant-head" data-entity-uid="part1" data-qualified-name="User" id="part1-head"><text fill="#000000" font-family="sans-serif" font-size="14" lengthAdjust="spacing" textLength="31.9102" x="5" y="115.292">User</text><ellipse cx="23.9551" cy="50.7969" fill="#E2E2F0" rx="8" ry="8" style="stroke:#181818;stroke-width:0.5;"/><path d="M23.9551,58.7969 L23.9551,85.7969 M10.9551,66.7969 L36.9551,66.7969 M23.9551,85.7969 L10.9551,100.7969 M23.9551,85.7969 L36.9551,100.7969" fill="none" style="stroke:#181818;stroke-width:0.5;"/></g><g class="participant participant-tail" data-entity-uid="part1" data-qualified-name="User" id="part1-tail"><text fill="#000000" font-family="sans-serif" font-size="14" lengthAdjust="spacing" textLength="31.9102" x="5" y="877.7764">User</text><ellipse cx="23.9551" cy="889.5781" fill="#E2E2F0" rx="8" ry="8" style="stroke:#181818;stroke-width:0.5;"/><path d="M23.9551,897.5781 L23.9551,924.5781 M10.9551,905.5781 L36.9551,905.5781 M23.9551,924.5781 L10.9551,939.5781 M23.9551,924.5781 L36.9551,939.5781" fill="none" style="stroke:#181818;stroke-width:0.5;"/></g><g class="participant participant-head" data-entity-uid="part2" data-qualified-name="CLI" id="part2-head"><rect fill="#E2E2F0" height="30.2969" rx="2.5" ry="2.5" style="stroke:#181818;stroke-width:0.5;" width="35.7041" x="398.5464" y="87.2969"/><text fill="#000000" font-family="sans-serif" font-size="14" lengthAdjust="spacing" textLength="21.7041" x="405.5464" y="107.292">CLI</text></g><g class="participant participant-tail" data-entity-uid="part2" data-qualified-name="CLI" id="part2-tail"><rect fill="#E2E2F0" height="30.2969" rx="2.5" ry="2.5" style="stroke:#181818;stroke-width:0.5;" width="35.7041" x="398.5464" y="864.7813"/><text fill="#000000" font-family="sans-serif" font-size="14" lengthAdjust="spacing" textLength="21.7041" x="405.5464" y="884.7764">CLI</text></g><g class="participant participant-head" data-entity-uid="part3" data-qualified-name="Control" id="part3-head"><rect fill="#E2E2F0" height="30.2969" rx="2.5" ry="2.5" style="stroke:#181818;stroke-width:0.5;" width="64.9141" x="644.8359" y="87.2969"/><text fill="#000000" font-family="sans-serif" font-size="14" lengthAdjust="spacing" textLength="50.9141" x="651.8359" y="107.292">Control</text></g><g class="participant participant-tail" data-entity-uid="part3" data-qualified-name="Control" id="part3-tail"><rect fill="#E2E2F0" height="30.2969" rx="2.5" ry="2.5" style="stroke:#181818;stroke-width:0.5;" width="64.9141" x="644.8359" y="864.7813"/><text fill="#000000" font-family="sans-serif" font-size="14" lengthAdjust="spacing" textLength="50.9141" x="651.8359" y="884.7764">Control</text></g><g class="participant participant-head" data-entity-uid="part4" data-qualified-name="Scheduler" id="part4-head"><rect fill="#E2E2F0" height="30.2969" rx="2.5" ry="2.5" style="stroke:#181818;stroke-width:0.5;" width="84.0889" x="912.0757" y="87.2969"/><text fill="#000000" font-family="sans-serif" font-size="14" lengthAdjust="spacing" textLength="70.0889" x="919.0757" y="107.292">Scheduler</text></g><g class="participant participant-tail" data-entity-uid="part4" data-qualified-name="Scheduler" id="part4-tail"><rect fill="#E2E2F0" height="30.2969" rx="2.5" ry="2.5" style="stroke:#181818;stroke-width:0.5;" width="84.0889" x="912.0757" y="864.7813"/><text fill="#000000" font-family="sans-serif" font-size="14" lengthAdjust="spacing" textLength="70.0889" x="919.0757" y="884.7764">Scheduler</text></g><g class="participant participant-head" data-entity-uid="part5" data-qualified-name="Discovery" id="part5-head"><rect fill="#E2E2F0" height="30.2969" rx="2.5" ry="2.5" style="stroke:#181818;stroke-width:0.5;" width="83.166" x="1006.1646" y="87.2969"/><text fill="#000000" font-family="sans-serif" font-size="14" lengthAdjust="spacing" textLength="69.166" x="1013.1646" y="107.292">Discovery</text></g><g class="participant participant-tail" data-entity-uid="part5" data-qualified-name="Discovery" id="part5-tail"><rect fill="#E2E2F0" height="30.2969" rx="2.5" ry="2.5" style="stroke:#181818;stroke-width:0.5;" width="83.166" x="1006.1646" y="864.7813"/><text fill="#000000" font-family="sans-serif" font-size="14" lengthAdjust="spacing" textLength="69.166" x="1013.1646" y="884.7764">Discovery</text></g><g class="participant participant-head" data-entity-uid="part6" data-qualified-name="Store" id="part6-head"><text fill="#000000" font-family="sans-serif" font-size="14" lengthAdjust="spacing" textLength="37.3105" x="1152.3657" y="115.292">Store</text><path d="M1156.021,66.2969 C1156.021,56.2969 1174.021,56.2969 1174.021,56.2969 C1174.021,56.2969 1192.021,56.2969 1192.021,66.2969 L1192.021,92.2969 C1192.021,102.2969 1174.021,102.2969 1174.021,102.2969 C1174.021,102.2969 1156.021,102.2969 1156.021,92.2969 L1156.021,66.2969" fill="#E2E2F0" style="stroke:#181818;stroke-width:0.5;"/><path d="M1156.021,66.2969 C1156.021,76.2969 1174.021,76.2969 1174.021,76.2969 C1174.021,76.2969 1192.021,76.2969 1192.021,66.2969" fill="none" style="stroke:#181818;stroke-width:0.5;"/></g><g class="participant participant-tail" data-entity-uid="part6" data-qualified-name="Store" id="part6-tail"><text fill="#000000" font-family="sans-serif" font-size="14" lengthAdjust="spacing" textLength="37.3105" x="1152.3657" y="877.7764">Store</text><path d="M1156.021,891.0781 C1156.021,881.0781 1174.021,881.0781 1174.021,881.0781 C1174.021,881.0781 1192.021,881.0781 1192.021,891.0781 L1192.021,917.0781 C1192.021,927.0781 1174.021,927.0781 1174.021,927.0781 C1174.021,927.0781 1156.021,927.0781 1156.021,917.0781 L1156.021,891.0781" fill="#E2E2F0" style="stroke:#181818;stroke-width:0.5;"/><path d="M1156.021,891.0781 C1156.021,901.0781 1174.021,901.0781 1174.021,901.0781 C1174.021,901.0781 1192.021,901.0781 1192.021,891.0781" fill="none" style="stroke:#181818;stroke-width:0.5;"/></g><g class="participant participant-head" data-entity-uid="part7" data-qualified-name="P" id="part7-head"><rect fill="#E2E2F0" height="46.5938" rx="2.5" ry="2.5" style="stroke:#181818;stroke-width:0.5;" width="93.3926" x="1298.2544" y="71"/><text fill="#000000" font-family="sans-serif" font-size="14" lengthAdjust="spacing" textLength="58.1943" x="1315.8535" y="90.9951">Provider</text><text fill="#000000" font-family="sans-serif" font-size="14" lengthAdjust="spacing" textLength="79.3926" x="1305.2544" y="107.292">(e.g. colab)</text></g><g class="participant participant-tail" data-entity-uid="part7" data-qualified-name="P" id="part7-tail"><rect fill="#E2E2F0" height="46.5938" rx="2.5" ry="2.5" style="stroke:#181818;stroke-width:0.5;" width="93.3926" x="1298.2544" y="864.7813"/><text fill="#000000" font-family="sans-serif" font-size="14" lengthAdjust="spacing" textLength="58.1943" x="1315.8535" y="884.7764">Provider</text><text fill="#000000" font-family="sans-serif" font-size="14" lengthAdjust="spacing" textLength="79.3926" x="1305.2544" y="901.0732">(e.g. colab)</text></g><g class="message" data-entity-1="part1" data-entity-2="part2" id="msg1"><polygon fill="#181818" points="404.3984,145.7266,414.3984,149.7266,404.3984,153.7266,408.3984,149.7266" style="stroke:#181818;stroke-width:1;"/><line style="stroke:#181818;stroke-width:1;" x1="23.9551" x2="410.3984" y1="149.7266" y2="149.7266"/><text fill="#000000" font-family="sans-serif" font-size="13" lengthAdjust="spacing" textLength="103.0605" x="30.9551" y="144.6606">omnirun submit</text><text fill="#000000" font-family="sans-serif" font-size="13" lengthAdjust="spacing" text-decoration="line-through" textLength="42.2437" x="138.1479" y="144.6606">gpu t4</text><text fill="#000000" font-family="sans-serif" font-size="13" lengthAdjust="spacing" textLength="214.8745" x="184.5239" y="144.6606">finish-by 18:00 -- python train.py</text></g><g class="message" data-entity-1="part2" data-entity-2="part3" id="msg2"><polygon fill="#181818" points="665.293,174.8594,675.293,178.8594,665.293,182.8594,669.293,178.8594" style="stroke:#181818;stroke-width:1;"/><line style="stroke:#181818;stroke-width:1;" x1="416.3984" x2="671.293" y1="178.8594" y2="178.8594"/><text fill="#000000" font-family="sans-serif" font-size="13" lengthAdjust="spacing" textLength="84.9507" x="423.3984" y="173.7935">submit(spec)</text></g><g class="message" data-entity-1="part3" data-entity-2="part6" id="msg3"><polygon fill="#181818" points="1162.021,203.9922,1172.021,207.9922,1162.021,211.9922,1166.021,207.9922" style="stroke:#181818;stroke-width:1;"/><line style="stroke:#181818;stroke-width:1;" x1="677.293" x2="1168.021" y1="207.9922" y2="207.9922"/><text fill="#000000" font-family="sans-serif" font-size="13" lengthAdjust="spacing" textLength="137.998" x="684.293" y="202.9263">persist Job (QUEUED)</text></g><rect fill="#EEEEEE" height="3" style="stroke:#EEEEEE;stroke-width:1;" width="1396.647" x="0" y="236.5586"/><line style="stroke:#000000;stroke-width:1;" x1="0" x2="1396.647" y1="236.5586" y2="236.5586"/><line style="stroke:#000000;stroke-width:1;" x1="0" x2="1396.647" y1="239.5586" y2="239.5586"/><rect fill="#EEEEEE" height="23.1328" style="stroke:#000000;stroke-width:2;" width="153.5342" x="621.5564" y="225.9922"/><text fill="#000000" font-family="sans-serif" font-size="13" font-weight="bold" lengthAdjust="spacing" textLength="135.4019" x="627.5564" y="242.0591">scheduler tick(now)</text><g class="message" data-entity-1="part3" data-entity-2="part5" id="msg4"><polygon fill="#181818" points="1035.7476,276.2578,1045.7476,280.2578,1035.7476,284.2578,1039.7476,280.2578" style="stroke:#181818;stroke-width:1;"/><line style="stroke:#181818;stroke-width:1;" x1="677.293" x2="1041.7476" y1="280.2578" y2="280.2578"/><text fill="#000000" font-family="sans-serif" font-size="13" lengthAdjust="spacing" textLength="75.5244" x="684.293" y="275.1919">facts fresh?</text></g><g class="message" data-entity-1="part5" data-entity-2="part7" id="msg5"><polygon fill="#181818" points="1332.9507,305.3906,1342.9507,309.3906,1332.9507,313.3906,1336.9507,309.3906" style="stroke:#181818;stroke-width:1;"/><line style="stroke:#181818;stroke-width:1;" x1="1047.7476" x2="1338.9507" y1="309.3906" y2="309.3906"/><text fill="#000000" font-family="sans-serif" font-size="13" lengthAdjust="spacing" textLength="158.7231" x="1054.7476" y="304.3247">discover()  (only if stale)</text></g><g class="message" data-entity-1="part7" data-entity-2="part5" id="msg6"><polygon fill="#181818" points="1058.7476,334.5234,1048.7476,338.5234,1058.7476,342.5234,1054.7476,338.5234" style="stroke:#181818;stroke-width:1;"/><line style="stroke:#181818;stroke-width:1;stroke-dasharray:2,2;" x1="1052.7476" x2="1343.9507" y1="338.5234" y2="338.5234"/><text fill="#000000" font-family="sans-serif" font-size="13" lengthAdjust="spacing" textLength="273.2031" x="1064.7476" y="333.4575">ProviderFacts (quota, cuda, limits, health)</text></g><g class="message" data-entity-1="part5" data-entity-2="part6" id="msg7"><polygon fill="#181818" points="1162.021,363.6563,1172.021,367.6563,1162.021,371.6563,1166.021,367.6563" style="stroke:#181818;stroke-width:1;"/><line style="stroke:#181818;stroke-width:1;" x1="1047.7476" x2="1168.021" y1="367.6563" y2="367.6563"/><text fill="#000000" font-family="sans-serif" font-size="13" lengthAdjust="spacing" textLength="102.2734" x="1054.7476" y="362.5903">cache facts (ttl)</text></g><g class="message" data-entity-1="part3" data-entity-2="part7" id="msg8"><polygon fill="#181818" points="1332.9507,392.7891,1342.9507,396.7891,1332.9507,400.7891,1336.9507,396.7891" style="stroke:#181818;stroke-width:1;"/><line style="stroke:#181818;stroke-width:1;" x1="677.293" x2="1338.9507" y1="396.7891" y2="396.7891"/><text fill="#000000" font-family="sans-serif" font-size="13" lengthAdjust="spacing" textLength="128.1528" x="684.293" y="391.7231">offer(requirements)</text></g><g class="message" data-entity-1="part7" data-entity-2="part3" id="msg9"><polygon fill="#181818" points="688.293,421.9219,678.293,425.9219,688.293,429.9219,684.293,425.9219" style="stroke:#181818;stroke-width:1;"/><line style="stroke:#181818;stroke-width:1;stroke-dasharray:2,2;" x1="682.293" x2="1343.9507" y1="425.9219" y2="425.9219"/><text fill="#000000" font-family="sans-serif" font-size="13" lengthAdjust="spacing" textLength="182.7046" x="694.293" y="420.856">[ Slot(free, T4, ready_now) ]</text></g><g class="message" data-entity-1="part3" data-entity-2="part4" id="msg10"><polygon fill="#181818" points="942.1201,451.0547,952.1201,455.0547,942.1201,459.0547,946.1201,455.0547" style="stroke:#181818;stroke-width:1;"/><line style="stroke:#181818;stroke-width:1;" x1="677.293" x2="948.1201" y1="455.0547" y2="455.0547"/><text fill="#000000" font-family="sans-serif" font-size="13" lengthAdjust="spacing" textLength="183.4028" x="684.293" y="449.9888">tick(jobs, slots, ledger, now)</text></g><g class="message" data-entity-1="part4" data-entity-2="part3" id="msg11"><polygon fill="#181818" points="688.293,480.1875,678.293,484.1875,688.293,488.1875,684.293,484.1875" style="stroke:#181818;stroke-width:1;"/><line style="stroke:#181818;stroke-width:1;stroke-dasharray:2,2;" x1="682.293" x2="953.1201" y1="484.1875" y2="484.1875"/><text fill="#000000" font-family="sans-serif" font-size="13" lengthAdjust="spacing" textLength="252.8271" x="694.293" y="479.1216">place Job -&gt; free Slot (meets deadline)</text></g><g class="message" data-entity-1="part3" data-entity-2="part6" id="msg12"><polygon fill="#181818" points="1162.021,509.3203,1172.021,513.3203,1162.021,517.3203,1166.021,513.3203" style="stroke:#181818;stroke-width:1;"/><line style="stroke:#181818;stroke-width:1;" x1="677.293" x2="1168.021" y1="513.3203" y2="513.3203"/><text fill="#000000" font-family="sans-serif" font-size="13" lengthAdjust="spacing" textLength="226.8462" x="684.293" y="508.2544">reserve() atomic  (Job -&gt; PLACING)</text></g><g class="message" data-entity-1="part3" data-entity-2="part7" id="msg13"><polygon fill="#181818" points="1332.9507,538.4531,1342.9507,542.4531,1332.9507,546.4531,1336.9507,542.4531" style="stroke:#181818;stroke-width:1;"/><line style="stroke:#181818;stroke-width:1;" x1="677.293" x2="1338.9507" y1="542.4531" y2="542.4531"/><text fill="#000000" font-family="sans-serif" font-size="13" lengthAdjust="spacing" textLength="98.3379" x="684.293" y="537.3872">place(Job, Slot)</text></g><g class="message" data-entity-1="part7" data-entity-2="part3" id="msg14"><polygon fill="#181818" points="688.293,567.5859,678.293,571.5859,688.293,575.5859,684.293,571.5859" style="stroke:#181818;stroke-width:1;"/><line style="stroke:#181818;stroke-width:1;stroke-dasharray:2,2;" x1="682.293" x2="1343.9507" y1="571.5859" y2="571.5859"/><text fill="#000000" font-family="sans-serif" font-size="13" lengthAdjust="spacing" textLength="211.8086" x="694.293" y="566.52">Placement(links=[notebook url])</text></g><g class="message" data-entity-1="part3" data-entity-2="part6" id="msg15"><polygon fill="#181818" points="1162.021,596.7188,1172.021,600.7188,1162.021,604.7188,1166.021,600.7188" style="stroke:#181818;stroke-width:1;"/><line style="stroke:#181818;stroke-width:1;" x1="677.293" x2="1168.021" y1="600.7188" y2="600.7188"/><text fill="#000000" font-family="sans-serif" font-size="13" lengthAdjust="spacing" textLength="178.1089" x="684.293" y="595.6528">Job -&gt; RUNNING, save links</text></g><g class="message" data-entity-1="part1" data-entity-2="part2" id="msg16"><polygon fill="#181818" points="404.3984,625.8516,414.3984,629.8516,404.3984,633.8516,408.3984,629.8516" style="stroke:#181818;stroke-width:1;"/><line style="stroke:#181818;stroke-width:1;" x1="23.9551" x2="410.3984" y1="629.8516" y2="629.8516"/><text fill="#000000" font-family="sans-serif" font-size="13" lengthAdjust="spacing" textLength="73.4487" x="30.9551" y="624.7856">omnirun ps</text></g><g class="message" data-entity-1="part2" data-entity-2="part3" id="msg17"><polygon fill="#181818" points="665.293,654.9844,675.293,658.9844,665.293,662.9844,669.293,658.9844" style="stroke:#181818;stroke-width:1;"/><line style="stroke:#181818;stroke-width:1;" x1="416.3984" x2="671.293" y1="658.9844" y2="658.9844"/><text fill="#000000" font-family="sans-serif" font-size="13" lengthAdjust="spacing" textLength="19.0938" x="423.3984" y="653.9185">list</text></g><g class="message" data-entity-1="part3" data-entity-2="part2" id="msg18"><polygon fill="#181818" points="427.3984,684.1172,417.3984,688.1172,427.3984,692.1172,423.3984,688.1172" style="stroke:#181818;stroke-width:1;"/><line style="stroke:#181818;stroke-width:1;stroke-dasharray:2,2;" x1="421.3984" x2="676.293" y1="688.1172" y2="688.1172"/><text fill="#000000" font-family="sans-serif" font-size="13" lengthAdjust="spacing" textLength="236.8945" x="433.3984" y="683.0513">colab -&gt; &lt;notebook url&gt;   RUNNING</text></g><rect fill="#EEEEEE" height="3" style="stroke:#EEEEEE;stroke-width:1;" width="1396.647" x="0" y="716.6836"/><line style="stroke:#000000;stroke-width:1;" x1="0" x2="1396.647" y1="716.6836" y2="716.6836"/><line style="stroke:#000000;stroke-width:1;" x1="0" x2="1396.647" y1="719.6836" y2="719.6836"/><rect fill="#EEEEEE" height="23.1328" style="stroke:#000000;stroke-width:2;" width="86.5029" x="655.072" y="706.1172"/><text fill="#000000" font-family="sans-serif" font-size="13" font-weight="bold" lengthAdjust="spacing" textLength="68.3706" x="661.072" y="722.1841">later ticks</text><g class="message" data-entity-1="part3" data-entity-2="part7" id="msg19"><polygon fill="#181818" points="1332.9507,756.3828,1342.9507,760.3828,1332.9507,764.3828,1336.9507,760.3828" style="stroke:#181818;stroke-width:1;"/><line style="stroke:#181818;stroke-width:1;" x1="677.293" x2="1338.9507" y1="760.3828" y2="760.3828"/><text fill="#000000" font-family="sans-serif" font-size="13" lengthAdjust="spacing" textLength="102.1338" x="684.293" y="755.3169">poll(Placement)</text></g><g class="message" data-entity-1="part7" data-entity-2="part3" id="msg20"><polygon fill="#181818" points="688.293,785.5156,678.293,789.5156,688.293,793.5156,684.293,789.5156" style="stroke:#181818;stroke-width:1;"/><line style="stroke:#181818;stroke-width:1;stroke-dasharray:2,2;" x1="682.293" x2="1343.9507" y1="789.5156" y2="789.5156"/><text fill="#000000" font-family="sans-serif" font-size="13" lengthAdjust="spacing" textLength="80.5835" x="694.293" y="784.4497">SUCCEEDED</text></g><g class="message" data-entity-1="part3" data-entity-2="part7" id="msg21"><polygon fill="#181818" points="1332.9507,814.6484,1342.9507,818.6484,1332.9507,822.6484,1336.9507,818.6484" style="stroke:#181818;stroke-width:1;"/><line style="stroke:#181818;stroke-width:1;" x1="677.293" x2="1338.9507" y1="818.6484" y2="818.6484"/><text fill="#000000" font-family="sans-serif" font-size="13" lengthAdjust="spacing" textLength="108.8623" x="684.293" y="813.5825">collect_outputs()</text></g><g class="message" data-entity-1="part3" data-entity-2="part6" id="msg22"><polygon fill="#181818" points="1162.021,843.7813,1172.021,847.7813,1162.021,851.7813,1166.021,847.7813" style="stroke:#181818;stroke-width:1;"/><line style="stroke:#181818;stroke-width:1;" x1="677.293" x2="1168.021" y1="847.7813" y2="847.7813"/><text fill="#000000" font-family="sans-serif" font-size="13" lengthAdjust="spacing" textLength="286.9395" x="684.293" y="842.7153">Job -&gt; SUCCEEDED, budget spent = 0 (free)</text></g><?plantuml-src VLHVRzem47_tfpZroP7IYabzcAhHQG8sTQeG6-EfgoedkH0FOwVsXIhVVkSGe2dTNWYnxtx_V0vfCWZB9jjgWijRy8sDZzmPWpc1h5HTjr0hgX8HDjhMogijX4eLxaNRDPJA11Gg9-TX5T0BBY2TwrfPWidztV3TMVBE3DQMUOL5OzvqJdN8tGvzAmf5AbE1DJ853eek5jxjT87-jvLujRwAgbMMN80Ai10YoebUM0NSWDjQ7Ss5tkhbkcw0hlbFgQqErMNMmeUFDwCHhq3TKkKia5VQNjMjY10HQQ-VqVOeCjIO9-Amp1MTIDwlqGST2Bwx3EIFrMmrcoP2ZCSG3dQ1RMoaTIy9ZCUl8OxM6QRaO0EK7aFrMPmsk6h1kqM_81C0wQnfGPSGI1bCn89j3B4EONtjCELpuqYba3S5_nhDRa8A5IeJJtf0TV2KAzRUIv94Pc0ywd5boM8yFZVQunOjXOEEKt0Fi3IE95l257vTf-1H5UrJbyFZ8CbZK3VxgFwuZ1K6xkQ7mMADFeNO9qwbGwxQg1ox8-3boDXnWzmYieM2YOss-ExvSUBeTyZ9Ad9RdNF0FSxY_ilaRlxjp7n75elIZkNS-I8Mn5Gaisx2-C4wmiov3JJUFBwhegVykPhFcPBDgnr2r_slwQx3-QmQ7iGJ-h6bkoonyjDh8RS01xvkNesYVbR3cpdjJFDdGXwDdNjUhYQJsMmwcxvjxBylJwwXkg4W_sV_2992rl2n4_2ru-i_XX5qWvJy1G00?></g></svg>