<?plantuml 1.2026.1?><svg xmlns="http://www.w3.org/2000/svg" xmlns:xlink="http://www.w3.org/1999/xlink" contentStyleType="text/css" data-diagram-type="SEQUENCE" height="796px" preserveAspectRatio="none" style="width:714px;height:796px;background:#FFFFFF;" version="1.1" viewBox="0 0 714 796" width="714px" zoomAndPan="magnify"><title>Ghost session -&gt; LOST -&gt; re-queue -&gt; re-place (recovery, #13)</title><defs/><g><text fill="#000000" font-family="sans-serif" font-size="14" font-weight="bold" lengthAdjust="spacing" textLength="469.1572" x="118.5078" y="27.9951">Ghost session -&gt; LOST -&gt; re-queue -&gt; re-place (recovery, #13)</text><g class="participant-lifeline" data-entity-uid="part1" data-qualified-name="Control" id="part1-lifeline"><g><title>Control</title><rect fill="#000000" fill-opacity="0.00000" height="97.3984" width="8" x="107.457" y="104.5938"/><line style="stroke:#181818;stroke-width:0.5;stroke-dasharray:5,5;" x1="111" x2="111" y1="104.5938" y2="201.9922"/></g><line style="stroke:#181818;stroke-width:0.5;stroke-dasharray:1,4;" x1="111" x2="111" y1="201.9922" y2="242.7969"/><g><title>Control</title><rect fill="#000000" fill-opacity="0.00000" height="475.2578" width="8" x="107.457" y="242.7969"/><line style="stroke:#181818;stroke-width:0.5;stroke-dasharray:5,5;" x1="111" x2="111" y1="242.7969" y2="718.0547"/></g></g><g class="participant-lifeline" data-entity-uid="part2" data-qualified-name="Scheduler" id="part2-lifeline"><g><title>Scheduler</title><rect fill="#000000" fill-opacity="0.00000" height="97.3984" width="8" x="391.3364" y="104.5938"/><line style="stroke:#181818;stroke-width:0.5;stroke-dasharray:5,5;" x1="395.292" x2="395.292" y1="104.5938" y2="201.9922"/></g><line style="stroke:#181818;stroke-width:0.5;stroke-dasharray:1,4;" x1="395.292" x2="395.292" y1="201.9922" y2="242.7969"/><g><title>Scheduler</title><rect fill="#000000" fill-opacity="0.00000" height="475.2578" width="8" x="391.3364" y="242.7969"/><line style="stroke:#181818;stroke-width:0.5;stroke-dasharray:5,5;" x1="395.292" x2="395.292" y1="242.7969" y2="718.0547"/></g></g><g class="participant-lifeline" data-entity-uid="part3" data-qualified-name="Store" id="part3-lifeline"><g><title>Store</title><rect fill="#000000" fill-opacity="0.00000" height="97.3984" width="8" x="465.0361" y="104.5938"/><line style="stroke:#181818;stroke-width:0.5;stroke-dasharray:5,5;" x1="468.3809" x2="468.3809" y1="104.5938" y2="201.9922"/></g><line style="stroke:#181818;stroke-width:0.5;stroke-dasharray:1,4;" x1="468.3809" x2="468.3809" y1="201.9922" y2="242.7969"/><g><title>Store</title><rect fill="#000000" fill-opacity="0.00000" height="475.2578" width="8" x="465.0361" y="242.7969"/><line style="stroke:#181818;stroke-width:0.5;stroke-dasharray:5,5;" x1="468.3809" x2="468.3809" y1="242.7969" y2="718.0547"/></g></g><g class="participant-lifeline" data-entity-uid="part4" data-qualified-name="A" id="part4-lifeline"><g><title>Provider A</title><rect fill="#000000" fill-opacity="0.00000" height="97.3984" width="8" x="549.3076" y="104.5938"/><line style="stroke:#181818;stroke-width:0.5;stroke-dasharray:5,5;" x1="552.6914" x2="552.6914" y1="104.5938" y2="201.9922"/></g><line style="stroke:#181818;stroke-width:0.5;stroke-dasharray:1,4;" x1="552.6914" x2="552.6914" y1="201.9922" y2="242.7969"/><g><title>Provider A</title><rect fill="#000000" fill-opacity="0.00000" height="475.2578" width="8" x="549.3076" y="242.7969"/><line style="stroke:#181818;stroke-width:0.5;stroke-dasharray:5,5;" x1="552.6914" x2="552.6914" y1="242.7969" y2="718.0547"/></g></g><g class="participant-lifeline" data-entity-uid="part5" data-qualified-name="B" id="part5-lifeline"><g><title>Provider B</title><rect fill="#000000" fill-opacity="0.00000" height="97.3984" width="8" x="655.0483" y="104.5938"/><line style="stroke:#181818;stroke-width:0.5;stroke-dasharray:5,5;" x1="658.9238" x2="658.9238" y1="104.5938" y2="201.9922"/></g><line style="stroke:#181818;stroke-width:0.5;stroke-dasharray:1,4;" x1="658.9238" x2="658.9238" y1="201.9922" y2="242.7969"/><g><title>Provider B</title><rect fill="#000000" fill-opacity="0.00000" height="475.2578" width="8" x="655.0483" y="242.7969"/><line style="stroke:#181818;stroke-width:0.5;stroke-dasharray:5,5;" x1="658.9238" x2="658.9238" y1="242.7969" y2="718.0547"/></g></g><g class="participant participant-head" data-entity-uid="part1" data-qualified-name="Control" id="part1-head"><rect fill="#E2E2F0" height="30.2969" rx="2.5" ry="2.5" style="stroke:#181818;stroke-width:0.5;" width="64.9141" x="79" y="73.2969"/><text fill="#000000" font-family="sans-serif" font-size="14" lengthAdjust="spacing" textLength="50.9141" x="86" y="93.292">Control</text></g><g class="participant participant-tail" data-entity-uid="part1" data-qualified-name="Control" id="part1-tail"><rect fill="#E2E2F0" height="30.2969" rx="2.5" ry="2.5" style="stroke:#181818;stroke-width:0.5;" width="64.9141" x="79" y="717.0547"/><text fill="#000000" font-family="sans-serif" font-size="14" lengthAdjust="spacing" textLength="50.9141" x="86" y="737.0498">Control</text></g><g class="participant participant-head" data-entity-uid="part2" data-qualified-name="Scheduler" id="part2-head"><rect fill="#E2E2F0" height="30.2969" rx="2.5" ry="2.5" style="stroke:#181818;stroke-width:0.5;" width="84.0889" x="353.292" y="73.2969"/><text fill="#000000" font-family="sans-serif" font-size="14" lengthAdjust="spacing" textLength="70.0889" x="360.292" y="93.292">Scheduler</text></g><g class="participant participant-tail" data-entity-uid="part2" data-qualified-name="Scheduler" id="part2-tail"><rect fill="#E2E2F0" height="30.2969" rx="2.5" ry="2.5" style="stroke:#181818;stroke-width:0.5;" width="84.0889" x="353.292" y="717.0547"/><text fill="#000000" font-family="sans-serif" font-size="14" lengthAdjust="spacing" textLength="70.0889" x="360.292" y="737.0498">Scheduler</text></g><g class="participant participant-head" data-entity-uid="part3" data-qualified-name="Store" id="part3-head"><text fill="#000000" font-family="sans-serif" font-size="14" lengthAdjust="spacing" textLength="37.3105" x="447.3809" y="101.292">Store</text><path d="M451.0361,52.2969 C451.0361,42.2969 469.0361,42.2969 469.0361,42.2969 C469.0361,42.2969 487.0361,42.2969 487.0361,52.2969 L487.0361,78.2969 C487.0361,88.2969 469.0361,88.2969 469.0361,88.2969 C469.0361,88.2969 451.0361,88.2969 451.0361,78.2969 L451.0361,52.2969" fill="#E2E2F0" style="stroke:#181818;stroke-width:0.5;"/><path d="M451.0361,52.2969 C451.0361,62.2969 469.0361,62.2969 469.0361,62.2969 C469.0361,62.2969 487.0361,62.2969 487.0361,52.2969" fill="none" style="stroke:#181818;stroke-width:0.5;"/></g><g class="participant participant-tail" data-entity-uid="part3" data-qualified-name="Store" id="part3-tail"><text fill="#000000" font-family="sans-serif" font-size="14" lengthAdjust="spacing" textLength="37.3105" x="447.3809" y="730.0498">Store</text><path d="M451.0361,743.3516 C451.0361,733.3516 469.0361,733.3516 469.0361,733.3516 C469.0361,733.3516 487.0361,733.3516 487.0361,743.3516 L487.0361,769.3516 C487.0361,779.3516 469.0361,779.3516 469.0361,779.3516 C469.0361,779.3516 451.0361,779.3516 451.0361,769.3516 L451.0361,743.3516" fill="#E2E2F0" style="stroke:#181818;stroke-width:0.5;"/><path d="M451.0361,743.3516 C451.0361,753.3516 469.0361,753.3516 469.0361,753.3516 C469.0361,753.3516 487.0361,753.3516 487.0361,743.3516" fill="none" style="stroke:#181818;stroke-width:0.5;"/></g><g class="participant participant-head" data-entity-uid="part4" data-qualified-name="A" id="part4-head"><rect fill="#E2E2F0" height="46.5938" rx="2.5" ry="2.5" style="stroke:#181818;stroke-width:0.5;" width="105.2324" x="500.6914" y="57"/><text fill="#000000" font-family="sans-serif" font-size="14" lengthAdjust="spacing" textLength="72.2217" x="517.1968" y="76.9951">Provider A</text><text fill="#000000" font-family="sans-serif" font-size="14" lengthAdjust="spacing" textLength="91.2324" x="507.6914" y="93.292">(colab, flaky)</text></g><g class="participant participant-tail" data-entity-uid="part4" data-qualified-name="A" id="part4-tail"><rect fill="#E2E2F0" height="46.5938" rx="2.5" ry="2.5" style="stroke:#181818;stroke-width:0.5;" width="105.2324" x="500.6914" y="717.0547"/><text fill="#000000" font-family="sans-serif" font-size="14" lengthAdjust="spacing" textLength="72.2217" x="517.1968" y="737.0498">Provider A</text><text fill="#000000" font-family="sans-serif" font-size="14" lengthAdjust="spacing" textLength="91.2324" x="507.6914" y="753.3467">(colab, flaky)</text></g><g class="participant participant-head" data-entity-uid="part5" data-qualified-name="B" id="part5-head"><rect fill="#E2E2F0" height="46.5938" rx="2.5" ry="2.5" style="stroke:#181818;stroke-width:0.5;" width="86.249" x="615.9238" y="57"/><text fill="#000000" font-family="sans-serif" font-size="14" lengthAdjust="spacing" textLength="72.249" x="622.9238" y="76.9951">Provider B</text><text fill="#000000" font-family="sans-serif" font-size="14" lengthAdjust="spacing" textLength="50.374" x="633.8613" y="93.292">(slurm)</text></g><g class="participant participant-tail" data-entity-uid="part5" data-qualified-name="B" id="part5-tail"><rect fill="#E2E2F0" height="46.5938" rx="2.5" ry="2.5" style="stroke:#181818;stroke-width:0.5;" width="86.249" x="615.9238" y="717.0547"/><text fill="#000000" font-family="sans-serif" font-size="14" lengthAdjust="spacing" textLength="72.249" x="622.9238" y="737.0498">Provider B</text><text fill="#000000" font-family="sans-serif" font-size="14" lengthAdjust="spacing" textLength="50.374" x="633.8613" y="753.3467">(slurm)</text></g><g class="message" data-entity-1="part1" data-entity-2="part4" id="msg1"><polygon fill="#181818" points="541.3076,131.7266,551.3076,135.7266,541.3076,139.7266,545.3076,135.7266" style="stroke:#181818;stroke-width:1;"/><line style="stroke:#181818;stroke-width:1;" x1="111.457" x2="547.3076" y1="135.7266" y2="135.7266"/><text fill="#000000" font-family="sans-serif" font-size="13" lengthAdjust="spacing" textLength="113.731" x="118.457" y="130.6606">place(Job, Slot_A)</text></g><g class="message" data-entity-1="part4" data-entity-2="part1" id="msg2"><polygon fill="#181818" points="122.457,160.8594,112.457,164.8594,122.457,168.8594,118.457,164.8594" style="stroke:#181818;stroke-width:1;"/><line style="stroke:#181818;stroke-width:1;stroke-dasharray:2,2;" x1="116.457" x2="552.3076" y1="164.8594" y2="164.8594"/><text fill="#000000" font-family="sans-serif" font-size="13" lengthAdjust="spacing" textLength="159.8594" x="128.457" y="159.7935">Placement_A (RUNNING)</text></g><g class="message" data-entity-1="part1" data-entity-2="part3" id="msg3"><polygon fill="#181818" points="457.0361,189.9922,467.0361,193.9922,457.0361,197.9922,461.0361,193.9922" style="stroke:#181818;stroke-width:1;"/><line style="stroke:#181818;stroke-width:1;" x1="111.457" x2="463.0361" y1="193.9922" y2="193.9922"/><text fill="#000000" font-family="sans-serif" font-size="13" lengthAdjust="spacing" textLength="105.5171" x="118.457" y="188.9263">Job -&gt; RUNNING</text></g><text fill="#000000" font-family="sans-serif" font-size="11" lengthAdjust="spacing" textLength="107.481" x="331.5122" y="226.2026">rapid session churn</text><g class="message" data-entity-1="part1" data-entity-2="part4" id="msg4"><polygon fill="#181818" points="541.3076,259.9297,551.3076,263.9297,541.3076,267.9297,545.3076,263.9297" style="stroke:#181818;stroke-width:1;"/><line style="stroke:#181818;stroke-width:1;" x1="111.457" x2="547.3076" y1="263.9297" y2="263.9297"/><text fill="#000000" font-family="sans-serif" font-size="13" lengthAdjust="spacing" textLength="117.5269" x="118.457" y="258.8638">poll(Placement_A)</text></g><g class="message" data-entity-1="part4" data-entity-2="part1" id="msg5"><polygon fill="#181818" points="122.457,289.0625,112.457,293.0625,122.457,297.0625,118.457,293.0625" style="stroke:#181818;stroke-width:1;"/><line style="stroke:#181818;stroke-width:1;stroke-dasharray:2,2;" x1="116.457" x2="552.3076" y1="293.0625" y2="293.0625"/><text fill="#000000" font-family="sans-serif" font-size="13" lengthAdjust="spacing" textLength="154.502" x="128.457" y="287.9966">LOST (session dropped)</text></g><path d="M86,306.0625 L86,376.0625 L492,376.0625 L492,316.0625 L482,306.0625 L86,306.0625" fill="#FEFFDD" style="stroke:#181818;stroke-width:0.5;"/><path d="M482,306.0625 L482,316.0625 L492,316.0625 L482,306.0625" fill="#FEFFDD" style="stroke:#181818;stroke-width:0.5;"/><text fill="#000000" font-family="sans-serif" font-size="13" lengthAdjust="spacing" textLength="212.875" x="105.0007" y="323.1294">reconcile: RUNNING -&gt; QUEUED,</text><text fill="#000000" font-family="sans-serif" font-size="13" lengthAdjust="spacing" textLength="244.2705" x="105.0007" y="338.2622">attempts++, release Slot_A capacity.</text><text fill="#000000" font-family="sans-serif" font-size="13" lengthAdjust="spacing" textLength="219.5464" x="105.0007" y="353.395">A misbehaving poll that RAISES is</text><text fill="#000000" font-family="sans-serif" font-size="13" lengthAdjust="spacing" textLength="359.6899" x="105.0007" y="368.5278">caught at the seam -&gt; DEGRADED, tick still completes.</text><g class="message" data-entity-1="part1" data-entity-2="part3" id="msg6"><polygon fill="#181818" points="457.0361,398.7266,467.0361,402.7266,457.0361,406.7266,461.0361,402.7266" style="stroke:#181818;stroke-width:1;"/><line style="stroke:#181818;stroke-width:1;" x1="111.457" x2="463.0361" y1="402.7266" y2="402.7266"/><text fill="#000000" font-family="sans-serif" font-size="13" lengthAdjust="spacing" textLength="99.5884" x="118.457" y="397.6606">Job -&gt; QUEUED</text></g><rect fill="#EEEEEE" height="3" style="stroke:#EEEEEE;stroke-width:1;" width="707.1729" x="0" y="431.293"/><line style="stroke:#000000;stroke-width:1;" x1="0" x2="707.1729" y1="431.293" y2="431.293"/><line style="stroke:#000000;stroke-width:1;" x1="0" x2="707.1729" y1="434.293" y2="434.293"/><rect fill="#EEEEEE" height="23.1328" style="stroke:#000000;stroke-width:2;" width="116.9272" x="295.1228" y="420.7266"/><text fill="#000000" font-family="sans-serif" font-size="13" font-weight="bold" lengthAdjust="spacing" textLength="98.7949" x="301.1228" y="436.7935">next tick(now)</text><g class="message" data-entity-1="part1" data-entity-2="part5" id="msg7"><polygon fill="#181818" points="647.0483,470.9922,657.0483,474.9922,647.0483,478.9922,651.0483,474.9922" style="stroke:#181818;stroke-width:1;"/><line style="stroke:#181818;stroke-width:1;" x1="111.457" x2="653.0483" y1="474.9922" y2="474.9922"/><text fill="#000000" font-family="sans-serif" font-size="13" lengthAdjust="spacing" textLength="128.1528" x="118.457" y="469.9263">offer(requirements)</text></g><g class="message" data-entity-1="part5" data-entity-2="part1" id="msg8"><polygon fill="#181818" points="122.457,500.125,112.457,504.125,122.457,508.125,118.457,504.125" style="stroke:#181818;stroke-width:1;"/><line style="stroke:#181818;stroke-width:1;stroke-dasharray:2,2;" x1="116.457" x2="658.0483" y1="504.125" y2="504.125"/><text fill="#000000" font-family="sans-serif" font-size="13" lengthAdjust="spacing" textLength="182.6348" x="128.457" y="499.0591">[ Slot_B (queued, wait 5m) ]</text></g><g class="message" data-entity-1="part1" data-entity-2="part2" id="msg9"><polygon fill="#181818" points="383.3364,529.2578,393.3364,533.2578,383.3364,537.2578,387.3364,533.2578" style="stroke:#181818;stroke-width:1;"/><line style="stroke:#181818;stroke-width:1;" x1="111.457" x2="389.3364" y1="533.2578" y2="533.2578"/><text fill="#000000" font-family="sans-serif" font-size="13" lengthAdjust="spacing" textLength="45.9253" x="118.457" y="528.1919">tick(...)</text></g><g class="message" data-entity-1="part2" data-entity-2="part1" id="msg10"><polygon fill="#181818" points="122.457,558.3906,112.457,562.3906,122.457,566.3906,118.457,562.3906" style="stroke:#181818;stroke-width:1;"/><line style="stroke:#181818;stroke-width:1;stroke-dasharray:2,2;" x1="116.457" x2="394.3364" y1="562.3906" y2="562.3906"/><text fill="#000000" font-family="sans-serif" font-size="13" lengthAdjust="spacing" textLength="259.8794" x="128.457" y="557.3247">deadline slack ok -&gt; place Job -&gt; Slot_B</text></g><g class="message" data-entity-1="part1" data-entity-2="part3" id="msg11"><polygon fill="#181818" points="457.0361,587.5234,467.0361,591.5234,457.0361,595.5234,461.0361,591.5234" style="stroke:#181818;stroke-width:1;"/><line style="stroke:#181818;stroke-width:1;" x1="111.457" x2="463.0361" y1="591.5234" y2="591.5234"/><text fill="#000000" font-family="sans-serif" font-size="13" lengthAdjust="spacing" textLength="222.7139" x="118.457" y="586.4575">reserve() atomic (Job -&gt; PLACING)</text></g><g class="message" data-entity-1="part1" data-entity-2="part5" id="msg12"><polygon fill="#181818" points="647.0483,616.6563,657.0483,620.6563,647.0483,624.6563,651.0483,620.6563" style="stroke:#181818;stroke-width:1;"/><line style="stroke:#181818;stroke-width:1;" x1="111.457" x2="653.0483" y1="620.6563" y2="620.6563"/><text fill="#000000" font-family="sans-serif" font-size="13" lengthAdjust="spacing" textLength="113.7563" x="118.457" y="615.5903">place(Job, Slot_B)</text></g><g class="message" data-entity-1="part5" data-entity-2="part1" id="msg13"><polygon fill="#181818" points="122.457,645.7891,112.457,649.7891,122.457,653.7891,118.457,649.7891" style="stroke:#181818;stroke-width:1;"/><line style="stroke:#181818;stroke-width:1;stroke-dasharray:2,2;" x1="116.457" x2="658.0483" y1="649.7891" y2="649.7891"/><text fill="#000000" font-family="sans-serif" font-size="13" lengthAdjust="spacing" textLength="159.8848" x="128.457" y="644.7231">Placement_B (RUNNING)</text></g><path d="M5,662.7891 L5,702.7891 L219,702.7891 L219,672.7891 L209,662.7891 L5,662.7891" fill="#FEFFDD" style="stroke:#181818;stroke-width:0.5;"/><path d="M209,662.7891 L209,672.7891 L219,672.7891 L209,662.7891" fill="#FEFFDD" style="stroke:#181818;stroke-width:0.5;"/><text fill="#000000" font-family="sans-serif" font-size="13" lengthAdjust="spacing" textLength="193.4258" x="11" y="679.856">invariant: a non-cancelled job</text><text fill="#000000" font-family="sans-serif" font-size="13" lengthAdjust="spacing" textLength="130.127" x="11" y="694.9888">is never silently lost</text><?plantuml-src VLJ1Zjem4BtxAqRRIw8DI5NL2nALaWMXhLQKadBgLfMnXusBOsTj1yhVTnn25vPjJqd6RsRUl7bEK44Zp2hh0tZqNba3Wq_myANy5fyE1yyjjjY_DveBXCIXi3jqXmpUlV-GChzLfk6Er-0hBkrUcIVOSEsHKJGeeHfk0jnP4vpL5x5IL2XRZOv97lYQUuGoM7UPUBDmTgSaEiWVJIAivkiCDffl3-aDS0_vFz05eRrkNNs45Opr5E8mEOoWcoRvRAbSgMtucQSiXm4Tdd0ZM4H8ZOOE8LckvlFx-ImzhzFH9I1LYPyzXB7XS0YEDqh-LLLKhJD0yMiULklahDCrZMuToQcITBPfKARCs80GDt62Phry0755HYYDenEdsEthQhgQJZ8wvo5WtGH_UviHLcCdVIS22DvmeS9XIB0SQkNNMF5TN6ea2g7Y0PRvVJajGNd22Du-LO4gqX7IkEG3QZMPpfRvX9e1hMOBFYZA5RPkD0RqGuP6GkJ_7p6FR1aRZy7Wxz0LIepTfp0UdwSLb68t6tHapETMkKv6dxBYbOhVZnCMa7IUbXdikGhmiKxXnmMDaoiff-j9IqlPI_IogaGkjJ8qEMrm2tORInmlIZ_7iUjRWphqw7QOfAIUhPM0f4zPFEHthwrMl67PudhA5oCLPvQziWeXbTbnf-ZIZ83JBin0S2DGQvJmowuVZVAaUqpnv2CJz04q_IR-0000?></g></svg>