<?plantuml 1.2026.1?><svg xmlns="http://www.w3.org/2000/svg" xmlns:xlink="http://www.w3.org/1999/xlink" contentStyleType="text/css" data-diagram-type="STATE" height="690px" preserveAspectRatio="none" style="width:1301px;height:690px;background:#FFFFFF;" version="1.1" viewBox="0 0 1301 690" width="1301px" zoomAndPan="magnify"><title>Job lifecycle &#8212; the universal state machine</title><defs/><g><g class="title" data-source-line="1"><text fill="#000000" font-family="sans-serif" font-size="14" font-weight="bold" lengthAdjust="spacing" textLength="318.6299" x="484.5191" y="22.9951">Job lifecycle &#8212; the universal state machine</text></g><ellipse cx="588.51" cy="53.2969" fill="#222222" rx="10" ry="10" style="stroke:#222222;stroke-width:1;"/><g><rect fill="#F1F1F1" height="50" rx="12.5" ry="12.5" style="stroke:#181818;stroke-width:0.5;" width="79.9854" x="548.51" y="140.2969"/><line style="stroke:#181818;stroke-width:0.5;" x1="548.51" x2="628.4954" y1="166.5938" y2="166.5938"/><text fill="#000000" font-family="sans-serif" font-size="14" lengthAdjust="spacing" textLength="59.9854" x="558.51" y="158.292">QUEUED</text></g><g><rect fill="#F1F1F1" height="50" rx="12.5" ry="12.5" style="stroke:#181818;stroke-width:0.5;" width="57.9531" x="278.53" y="282.2969"/><line style="stroke:#181818;stroke-width:0.5;" x1="278.53" x2="336.4831" y1="308.5938" y2="308.5938"/><text fill="#000000" font-family="sans-serif" font-size="14" lengthAdjust="spacing" textLength="37.9531" x="288.53" y="300.292">HELD</text></g><g><rect fill="#F1F1F1" height="50" rx="12.5" ry="12.5" style="stroke:#181818;stroke-width:0.5;" width="103.6719" x="606.67" y="551.2969"/><line style="stroke:#181818;stroke-width:0.5;" x1="606.67" x2="710.3419" y1="577.5938" y2="577.5938"/><text fill="#000000" font-family="sans-serif" font-size="14" lengthAdjust="spacing" textLength="83.6719" x="616.67" y="569.292">CANCELLED</text></g><g><rect fill="#F1F1F1" height="50" rx="12.5" ry="12.5" style="stroke:#181818;stroke-width:0.5;" width="81.0449" x="683.98" y="282.2969"/><line style="stroke:#181818;stroke-width:0.5;" x1="683.98" x2="765.0249" y1="308.5938" y2="308.5938"/><text fill="#000000" font-family="sans-serif" font-size="14" lengthAdjust="spacing" textLength="61.0449" x="693.98" y="300.292">PLACING</text></g><g><rect fill="#F1F1F1" height="50" rx="12.5" ry="12.5" style="stroke:#181818;stroke-width:0.5;" width="86.3701" x="928.32" y="409.2969"/><line style="stroke:#181818;stroke-width:0.5;" x1="928.32" x2="1014.6901" y1="435.5938" y2="435.5938"/><text fill="#000000" font-family="sans-serif" font-size="14" lengthAdjust="spacing" textLength="66.3701" x="938.32" y="427.292">RUNNING</text></g><g><rect fill="#F1F1F1" height="50" rx="12.5" ry="12.5" style="stroke:#181818;stroke-width:0.5;" width="106.7822" x="918.11" y="551.2969"/><line style="stroke:#181818;stroke-width:0.5;" x1="918.11" x2="1024.8922" y1="577.5938" y2="577.5938"/><text fill="#000000" font-family="sans-serif" font-size="14" lengthAdjust="spacing" textLength="86.7822" x="928.11" y="569.292">SUCCEEDED</text></g><g><rect fill="#F1F1F1" height="50" rx="12.5" ry="12.5" style="stroke:#181818;stroke-width:0.5;" width="69.1846" x="1074.91" y="551.2969"/><line style="stroke:#181818;stroke-width:0.5;" x1="1074.91" x2="1144.0946" y1="577.5938" y2="577.5938"/><text fill="#000000" font-family="sans-serif" font-size="14" lengthAdjust="spacing" textLength="49.1846" x="1084.91" y="569.292">FAILED</text></g><ellipse cx="971.51" cy="673.2969" fill="none" rx="11" ry="11" style="stroke:#222222;stroke-width:1;"/><ellipse cx="971.51" cy="673.2969" fill="#222222" rx="6" ry="6" style="stroke:#222222;stroke-width:1;"/><g class="entity" data-qualified-name="GMN2" data-source-line="27" id="ent0003"><path d="M663.67,145.1669 L663.67,161.2969 L628.85,165.2969 L663.67,169.2969 L663.67,185.4325 A0,0 0 0 0 663.67,185.4325 L967.3311,185.4325 A0,0 0 0 0 967.3311,185.4325 L967.3311,155.1669 L957.3311,145.1669 L663.67,145.1669 A0,0 0 0 0 663.67,145.1669" fill="#FEFFDD" style="stroke:#181818;stroke-width:0.5;"/><path d="M957.3311,145.1669 L957.3311,155.1669 L967.3311,155.1669 L957.3311,145.1669" fill="#FEFFDD" style="stroke:#181818;stroke-width:0.5;"/><text fill="#000000" font-family="sans-serif" font-size="13" lengthAdjust="spacing" textLength="231.8799" x="669.67" y="162.2338">A job that is not explicitly cancelled</text><text fill="#000000" font-family="sans-serif" font-size="13" lengthAdjust="spacing" textLength="282.6611" x="669.67" y="177.3666">always eventually runs (liveness invariant).</text></g><!--link *start* to QUEUED--><g class="link" data-entity-1="ent0002" data-entity-2="ent0003" data-link-type="dependency" data-source-line="4" id="lnk4"><path d="M588.51,63.6769 C588.51,80.4069 588.51,109.8869 588.51,133.9269" fill="none" id="*start*-to-QUEUED" style="stroke:#181818;stroke-width:1;"/><polygon fill="#181818" points="588.51,139.9269,592.51,130.9269,588.51,134.9269,584.51,130.9269,588.51,139.9269" style="stroke:#181818;stroke-width:1;"/><text fill="#000000" font-family="sans-serif" font-size="13" lengthAdjust="spacing" textLength="44.6367" x="589.51" y="106.3638">submit</text></g><!--link QUEUED to HELD--><g class="link" data-entity-1="ent0003" data-entity-2="ent0005" data-link-type="dependency" data-source-line="6" id="lnk6"><path d="M548.02,167.4369 C431.16,171.1569 99.55,184.7569 67.51,220.2969 C6,288.5069 195.8843,302.4193 272.3043,305.3193" fill="none" id="QUEUED-to-HELD" style="stroke:#181818;stroke-width:1;"/><polygon fill="#181818" points="278.3,305.5469,269.4582,301.2085,273.3036,305.3573,269.1548,309.2027,278.3,305.5469" style="stroke:#181818;stroke-width:1;"/><text fill="#000000" font-family="sans-serif" font-size="13" lengthAdjust="spacing" textLength="156.3555" x="87.8862" y="233.3638">no slot can EVER satisfy</text><text fill="#000000" font-family="sans-serif" font-size="13" lengthAdjust="spacing" textLength="195.1079" x="68.51" y="248.4966">requirements (admission, #8)</text></g><!--link HELD to QUEUED--><g class="link" data-entity-1="ent0005" data-entity-2="ent0003" data-link-type="dependency" data-source-line="7" id="lnk7"><path d="M298.72,281.9969 C293.57,263.0569 290.5,237.2169 304.51,220.2969 C334.99,183.4669 471.3781,171.8589 542.2381,168.1689" fill="none" id="HELD-to-QUEUED" style="stroke:#181818;stroke-width:1;"/><polygon fill="#181818" points="548.23,167.8569,539.0342,164.3303,543.2368,168.1169,539.4502,172.3195,548.23,167.8569" style="stroke:#181818;stroke-width:1;"/><text fill="#000000" font-family="sans-serif" font-size="13" lengthAdjust="spacing" textLength="227.1572" x="305.51" y="240.8638">constraints / budget / facts change</text></g><!--link HELD to CANCELLED--><g class="link" data-entity-1="ent0005" data-entity-2="ent0008" data-link-type="dependency" data-source-line="8" id="lnk9"><path d="M327.08,332.5169 C363.44,376.0569 445.73,467.9569 533.51,521.2969 C556.33,535.1669 577.7898,545.0869 600.8698,554.3269" fill="none" id="HELD-to-CANCELLED" style="stroke:#181818;stroke-width:1;"/><polygon fill="#181818" points="606.44,556.5569,599.5714,549.4984,601.7982,554.6985,596.598,556.9253,606.44,556.5569" style="stroke:#181818;stroke-width:1;"/><text fill="#000000" font-family="sans-serif" font-size="13" lengthAdjust="spacing" textLength="74.5977" x="447.65" y="438.8638">user cancel</text></g><!--link QUEUED to PLACING--><g class="link" data-entity-1="ent0003" data-entity-2="ent0010" data-link-type="dependency" data-source-line="10" id="lnk11"><path d="M590.62,190.6669 C593.38,209.4069 599.76,234.9369 614.51,252.2969 C632.34,273.2969 654.6282,284.8526 677.8882,293.1426" fill="none" id="QUEUED-to-PLACING" style="stroke:#181818;stroke-width:1;"/><polygon fill="#181818" points="683.54,295.1569,676.4052,288.3675,678.8302,293.4783,673.7195,295.9032,683.54,295.1569" style="stroke:#181818;stroke-width:1;"/><text fill="#000000" font-family="sans-serif" font-size="13" lengthAdjust="spacing" textLength="160.5957" x="615.51" y="240.8638">reserve slot (atomic txn)</text></g><!--link PLACING to QUEUED--><g class="link" data-entity-1="ent0010" data-entity-2="ent0003" data-link-type="dependency" data-source-line="14" id="lnk15"><path d="M757.34,282.0669 C777.36,264.3469 796.32,240.0469 780.51,220.2969 C742.35,172.6569 704.69,208.6969 646.51,190.2969 C640.69,188.4569 640.2335,188.4479 634.3335,186.1579" fill="none" id="PLACING-to-QUEUED" style="stroke:#181818;stroke-width:1;"/><polygon fill="#181818" points="628.74,183.9869,635.6828,190.9724,633.4012,185.7961,638.5775,183.5144,628.74,183.9869" style="stroke:#181818;stroke-width:1;"/><text fill="#000000" font-family="sans-serif" font-size="13" lengthAdjust="spacing" textLength="170.1299" x="787.38" y="240.8638">place failed (attempts++)</text></g><!--link QUEUED to CANCELLED--><g class="link" data-entity-1="ent0003" data-entity-2="ent0008" data-link-type="dependency" data-source-line="11" id="lnk12"><path d="M587.51,190.4669 C587.11,207.7469 587.19,231.5169 589.51,252.2969 C602.12,365.4169 635.0536,491.5259 649.9336,545.0759" fill="none" id="QUEUED-to-CANCELLED" style="stroke:#181818;stroke-width:1;"/><polygon fill="#181818" points="651.54,550.8569,652.9844,541.1145,650.2014,546.0394,645.2765,543.2563,651.54,550.8569" style="stroke:#181818;stroke-width:1;"/><text fill="#000000" font-family="sans-serif" font-size="13" lengthAdjust="spacing" textLength="74.5977" x="610.51" y="375.3638">user cancel</text></g><!--link PLACING to RUNNING--><g class="link" data-entity-1="ent0010" data-entity-2="ent0013" data-link-type="dependency" data-source-line="13" id="lnk14"><path d="M765.51,329.3569 C793.17,343.5369 830.49,362.6169 863.51,379.2969 C884.65,389.9769 902.8013,399.078 922.4813,408.898" fill="none" id="PLACING-to-RUNNING" style="stroke:#181818;stroke-width:1;"/><polygon fill="#181818" points="927.85,411.5769,921.5828,403.9793,923.376,409.3444,918.0109,411.1377,927.85,411.5769" style="stroke:#181818;stroke-width:1;"/><text fill="#000000" font-family="sans-serif" font-size="13" lengthAdjust="spacing" textLength="123.3159" x="864.51" y="375.3638">provider.place() ok</text></g><!--link PLACING to CANCELLED--><g class="link" data-entity-1="ent0010" data-entity-2="ent0008" data-link-type="dependency" data-source-line="15" id="lnk16"><path d="M718.53,332.4669 C706,383.1669 678.5204,494.3423 665.9504,545.1723" fill="none" id="PLACING-to-CANCELLED" style="stroke:#181818;stroke-width:1;"/><polygon fill="#181818" points="664.51,550.9969,670.5536,543.2203,665.7103,546.1431,662.7875,541.2998,664.51,550.9969" style="stroke:#181818;stroke-width:1;"/><text fill="#000000" font-family="sans-serif" font-size="13" lengthAdjust="spacing" textLength="74.5977" x="700.14" y="438.8638">user cancel</text></g><!--link RUNNING to SUCCEEDED--><g class="link" data-entity-1="ent0013" data-entity-2="ent0017" data-link-type="dependency" data-source-line="17" id="lnk18"><path d="M969.86,459.7469 C969.31,468.9969 968.77,479.6269 968.51,489.2969 C968.11,503.5169 968.11,507.0769 968.51,521.2969 C968.77,530.9669 968.9539,535.6075 969.5039,544.8575" fill="none" id="RUNNING-to-SUCCEEDED" style="stroke:#181818;stroke-width:1;"/><polygon fill="#181818" points="969.86,550.8469,973.3188,541.6253,969.5632,545.8557,965.3329,542.1002,969.86,550.8469" style="stroke:#181818;stroke-width:1;"/><text fill="#000000" font-family="sans-serif" font-size="13" lengthAdjust="spacing" textLength="112.8423" x="969.51" y="509.8638">result.json, exit 0</text></g><!--link RUNNING to QUEUED--><g class="link" data-entity-1="ent0013" data-entity-2="ent0003" data-link-type="dependency" data-source-line="18" id="lnk19"><path d="M983.22,408.8669 C986.97,399.7969 990.63,389.2869 992.51,379.2969 C1005.71,308.9169 1019.31,268.6669 966.51,220.2969 C913.84,172.0569 715.83,207.4769 646.51,190.2969 C640.69,188.8569 640.3214,188.9975 634.5014,186.8575" fill="none" id="RUNNING-to-QUEUED" style="stroke:#181818;stroke-width:1;"/><polygon fill="#181818" points="628.87,184.7869,635.9366,191.6471,633.5628,186.5124,638.6975,184.1386,628.87,184.7869" style="stroke:#181818;stroke-width:1;"/><text fill="#000000" font-family="sans-serif" font-size="13" lengthAdjust="spacing" textLength="167.1274" x="1048.3743" y="304.3638">LOST / ghost / preempted</text><text fill="#000000" font-family="sans-serif" font-size="13" lengthAdjust="spacing" textLength="252.916" x="1005.48" y="319.4966">(reconcile re-queues &#8212; never wedged)</text></g><!--link RUNNING to FAILED--><g class="link" data-entity-1="ent0013" data-entity-2="ent0020" data-link-type="dependency" data-source-line="19" id="lnk21"><path d="M1015.14,445.9569 C1039.42,454.0369 1068.32,467.5569 1086.51,489.2969 C1100.98,506.6069 1105.7936,526.1807 1107.7936,544.9307" fill="none" id="RUNNING-to-FAILED" style="stroke:#181818;stroke-width:1;"/><polygon fill="#181818" points="1108.43,550.8969,1111.4529,541.5234,1107.8997,545.9251,1103.498,542.3719,1108.43,550.8969" style="stroke:#181818;stroke-width:1;"/><text fill="#000000" font-family="sans-serif" font-size="13" lengthAdjust="spacing" textLength="189.998" x="1103.67" y="509.8638">exit != 0 &amp; retries exhausted</text></g><!--link RUNNING to CANCELLED--><g class="link" data-entity-1="ent0013" data-entity-2="ent0008" data-link-type="dependency" data-source-line="20" id="lnk22"><path d="M928.19,438.6669 C880.76,443.8869 803.69,456.9769 745.51,489.2969 C717.84,504.6669 696.7103,526.6339 680.7003,546.1939" fill="none" id="RUNNING-to-CANCELLED" style="stroke:#181818;stroke-width:1;"/><polygon fill="#181818" points="676.9,550.8369,685.6958,546.4059,680.0669,546.9677,679.5052,541.3388,676.9,550.8369" style="stroke:#181818;stroke-width:1;"/><text fill="#000000" font-family="sans-serif" font-size="13" lengthAdjust="spacing" textLength="74.5977" x="815.7566" y="502.3638">user cancel</text><text fill="#000000" font-family="sans-serif" font-size="13" lengthAdjust="spacing" textLength="213.0908" x="746.51" y="517.4966">(SIGTERM -&gt; SIGKILL, then reap)</text></g><!--link SUCCEEDED to *end*--><g class="link" data-entity-1="ent0017" data-entity-2="ent0023" data-link-type="dependency" data-source-line="22" id="lnk24"><path d="M971.51,601.7569 C971.51,621.3369 971.51,641.7869 971.51,656.0969" fill="none" id="SUCCEEDED-to-*end*" style="stroke:#181818;stroke-width:1;"/><polygon fill="#181818" points="971.51,662.0969,975.51,653.0969,971.51,657.0969,967.51,653.0969,971.51,662.0969" style="stroke:#181818;stroke-width:1;"/></g><!--link FAILED to *end*--><g class="link" data-entity-1="ent0020" data-entity-2="ent0023" data-link-type="dependency" data-source-line="23" id="lnk25"><path d="M1074.68,601.2669 C1043.22,622.9269 1004.0225,649.9151 985.3525,662.7651" fill="none" id="FAILED-to-*end*" style="stroke:#181818;stroke-width:1;"/><polygon fill="#181818" points="980.41,666.1669,990.0915,664.3592,984.5287,663.3321,985.5559,657.7693,980.41,666.1669" style="stroke:#181818;stroke-width:1;"/></g><!--link CANCELLED to *end*--><g class="link" data-entity-1="ent0008" data-entity-2="ent0023" data-link-type="dependency" data-source-line="24" id="lnk26"><path d="M710.54,593.0869 C786.33,616.0969 916.5385,655.6147 955.2285,667.3547" fill="none" id="CANCELLED-to-*end*" style="stroke:#181818;stroke-width:1;"/><polygon fill="#181818" points="960.97,669.0969,953.5192,662.6559,956.1854,667.6451,951.1963,670.3113,960.97,669.0969" style="stroke:#181818;stroke-width:1;"/></g><?plantuml-src TLFBSjD04BplLmn55MMHsEH8KGLLBaSOWt30ZhaG3kFLsDfajQlimuyR7y4NyYNCodQC3hbfTtgwUqQzGGLDyDakGQiLoRtaqz_VVo1K1D6e3JcF6dp0G52Zh9GXuH-KQT1X3Rx2qcwLMSCAjISXVhx-1Vt-1_Y-o1VvDRm37vUr2a8SBrBjKrwaYh7WjGqWqK3-8v-1nw3yQdzd73r6vQWc4ppqiAoLzygQItZvDXDjTqT2MkE3GvNGRs0PopK5_bYXv0jPeLdJkMiqd8xoecWReoUNv2NfZi5lnN0qcOuPuOWX6peOxM6mjP8GTYRx7_uivOadWMQBwVJ0sJYxKIMvGQDHKYy3-z11FitLrdaCfQbCue7g9lYBYwm3VrRzf9X0yyLebEVNBOXdYZeCxdtQAErKWAiEzac_k9dVyXxNbVLfdusZP83AEzDpn4kNR8pP-e-H8lasDOOuCB0b_WLbrc7zE9mSFBQABzx35RpYvk0KjzAkmkYPkjFop6GiFv-CR_FPLqYJJSPV9aLncG9hc12RJ8Zpk8c7CocEygVZcVfq8upbX3krhWBOrN490c08z_msGeK1bEVC1ZRRQ2NvsUoFXlZtC13r5lSyoePJ6r5prKN3yTNyXWnv3yfiq2aq8Hi8CcNYedy0?></g></svg>